<svg xmlns="http://www.w3.org/2000/svg" viewBox="0 0 2160 2160">
  <defs>
    <clipPath id="clip-path">
      <path fill="none" d="M4502.5 3765.62q-85.17 76-35.55 178.73t-58.14 140.37q-107.76 37.58-101.24 151.51t-107.43 107.43q-113.93-6.51-151.52 101.25t-140.36 58.14q-102.77-49.62-178.73 35.55t-151.92 0q-76-85.17-178.74-35.55t-140.36-58.14q-37.59-107.76-151.52-101.25t-107.43-107.43q6.53-113.92-101.24-151.51t-58.14-140.37q49.62-102.76-35.56-178.73t0-151.92q85.17-76 35.56-178.73t58.14-140.36q107.74-37.61 101.24-151.53T3107 3035.66q113.94 6.51 151.52-101.25t140.36-58.13q102.77 49.6 178.74-35.56t151.92 0q76 85.17 178.73 35.56t140.36 58.13q37.59 107.76 151.52 101.25t107.43 107.42q-6.51 113.94 101.24 151.53T4467 3435q-49.62 102.77 35.55 178.73t-.05 151.89z"/>
    </clipPath>
    <style>
      .cls-6{fill:#fff;stroke:#000;stroke-miterlimit:10;stroke-width:12px}
    </style>
  </defs>
  <g id="Oprah_s_Favorite_Things" clip-path="url(#clip-path)" data-name="Oprah's Favorite Things" opacity=".4">
    <path fill="#f16974" d="M2076.64 1942.36a10.13 10.13 0 11-10.13-10.13 10.12 10.12 0 0110.13 10.13zm-50.64-50.62a10.13 10.13 0 1010.13 10.13 10.13 10.13 0 00-10.13-10.13zm121.48 40.49a10.13 10.13 0 1010.12 10.13 10.13 10.13 0 00-10.1-10.13zm-40.48-40.49a10.13 10.13 0 1010.12 10.13 10.13 10.13 0 00-10.12-10.13zm121.47 40.49a10.13 10.13 0 1010.12 10.13 10.14 10.14 0 00-10.11-10.13zm-40.47-40.49a10.13 10.13 0 1010.12 10.13 10.14 10.14 0 00-10.12-10.13zm121.47 40.49a10.13 10.13 0 1010.12 10.13 10.14 10.14 0 00-10.13-10.13zm-40.47-40.49a10.13 10.13 0 1010.12 10.13 10.14 10.14 0 00-10.12-10.13zm121.47 40.49a10.13 10.13 0 1010.12 10.13 10.13 10.13 0 00-10.15-10.13zm-40.47-40.49a10.13 10.13 0 1010.12 10.13 10.13 10.13 0 00-10.12-10.13zm121.47 40.49a10.13 10.13 0 1010.12 10.13 10.13 10.13 0 00-10.17-10.13zm-40.49-40.49a10.13 10.13 0 1010.12 10.13 10.13 10.13 0 00-10.17-10.13zm121.47 40.49a10.13 10.13 0 1010.12 10.13 10.13 10.13 0 00-10.17-10.13zm-40.49-40.49a10.13 10.13 0 1010.12 10.13 10.13 10.13 0 00-10.17-10.13zm121.47 40.49a10.13 10.13 0 1010.12 10.13 10.13 10.13 0 00-10.17-10.13zm-40.49-40.49a10.13 10.13 0 1010.12 10.13 10.13 10.13 0 00-10.17-10.13zm121.47 40.49a10.13 10.13 0 1010.13 10.13 10.13 10.13 0 00-10.18-10.13zm-40.49-40.49a10.13 10.13 0 1010.12 10.13 10.13 10.13 0 00-10.17-10.13zm121.47 40.49a10.13 10.13 0 1010.13 10.13 10.13 10.13 0 00-10.18-10.13zm-40.49-40.49a10.13 10.13 0 1010.13 10.13 10.13 10.13 0 00-10.18-10.13zm121.47 40.49a10.13 10.13 0 1010.13 10.13 10.13 10.13 0 00-10.18-10.13zm-40.49-40.49a10.13 10.13 0 1010.13 10.13 10.13 10.13 0 00-10.18-10.13zm121.48 40.49a10.13 10.13 0 1010.12 10.13 10.13 10.13 0 00-10.17-10.13zm-40.5-40.49a10.13 10.13 0 1010.13 10.13 10.13 10.13 0 00-10.18-10.13zm121.48 40.49a10.13 10.13 0 1010.12 10.13 10.14 10.14 0 00-10.17-10.13zm-40.49-40.49a10.13 10.13 0 1010.12 10.13 10.13 10.13 0 00-10.17-10.13zm121.47 40.49a10.13 10.13 0 1010.12 10.13 10.14 10.14 0 00-10.17-10.13zm-40.49-40.49a10.13 10.13 0 1010.12 10.13 10.14 10.14 0 00-10.17-10.13zm121.47 40.49a10.13 10.13 0 1010.12 10.13 10.13 10.13 0 00-10.17-10.13zm-40.49-40.49a10.13 10.13 0 1010.12 10.13 10.13 10.13 0 00-10.17-10.13zm121.47 40.49a10.13 10.13 0 1010.12 10.13 10.13 10.13 0 00-10.17-10.13zm-40.49-40.49a10.13 10.13 0 1010.12 10.13 10.13 10.13 0 00-10.17-10.13zm121.47 40.49a10.13 10.13 0 1010.12 10.13 10.13 10.13 0 00-10.17-10.13zm-40.49-40.49a10.13 10.13 0 1010.12 10.13 10.13 10.13 0 00-10.17-10.13zm121.47 40.49a10.13 10.13 0 1010.12 10.13 10.13 10.13 0 00-10.17-10.13zm-40.49-40.49a10.13 10.13 0 1010.12 10.13 10.13 10.13 0 00-10.17-10.13zm121.47 40.49a10.13 10.13 0 1010.12 10.13 10.13 10.13 0 00-10.17-10.13zm-40.49-40.49a10.13 10.13 0 1010.12 10.13 10.13 10.13 0 00-10.17-10.13zm81 0a10.13 10.13 0 1010.13 10.13 10.13 10.13 0 00-10.2-10.13zm-1498.22 121.48a10.12 10.12 0 1010.13 10.12 10.12 10.12 0 00-10.13-10.12zm-40.49-40.5a10.13 10.13 0 1010.13 10.13 10.13 10.13 0 00-10.15-10.13zm121.48 40.5a10.12 10.12 0 1010.12 10.12 10.12 10.12 0 00-10.12-10.12zm-40.49-40.5a10.13 10.13 0 1010.12 10.13 10.13 10.13 0 00-10.13-10.13zm121.47 40.5a10.12 10.12 0 1010.12 10.12 10.13 10.13 0 00-10.12-10.12zm-40.49-40.5a10.13 10.13 0 1010.12 10.13 10.14 10.14 0 00-10.11-10.13zm121.47 40.5a10.12 10.12 0 1010.12 10.12 10.13 10.13 0 00-10.12-10.12zm-40.49-40.5a10.13 10.13 0 1010.12 10.13 10.14 10.14 0 00-10.09-10.13zm121.47 40.5a10.12 10.12 0 1010.12 10.12 10.12 10.12 0 00-10.12-10.12zm-40.49-40.5a10.13 10.13 0 1010.12 10.13 10.13 10.13 0 00-10.07-10.13zm121.47 40.5a10.12 10.12 0 1010.12 10.12 10.12 10.12 0 00-10.12-10.12zm-40.49-40.5a10.13 10.13 0 1010.12 10.13 10.13 10.13 0 00-10.12-10.13zm121.47 40.5a10.12 10.12 0 1010.12 10.12 10.12 10.12 0 00-10.12-10.12zm-40.49-40.5a10.13 10.13 0 1010.12 10.13 10.13 10.13 0 00-10.12-10.13zm121.47 40.5a10.12 10.12 0 1010.12 10.12 10.12 10.12 0 00-10.12-10.12zm-40.49-40.5a10.13 10.13 0 1010.12 10.13 10.13 10.13 0 00-10.12-10.13zm121.47 40.5a10.12 10.12 0 1010.13 10.12 10.12 10.12 0 00-10.13-10.12zm-40.49-40.5a10.13 10.13 0 1010.12 10.13 10.13 10.13 0 00-10.12-10.13zm121.47 40.5a10.12 10.12 0 1010.13 10.12 10.12 10.12 0 00-10.13-10.12zm-40.49-40.5a10.13 10.13 0 1010.13 10.13 10.13 10.13 0 00-10.13-10.13zm121.47 40.5a10.12 10.12 0 1010.13 10.12 10.12 10.12 0 00-10.13-10.12zm-40.49-40.5a10.13 10.13 0 1010.13 10.13 10.13 10.13 0 00-10.13-10.13zm121.48 40.5a10.12 10.12 0 1010.12 10.12 10.12 10.12 0 00-10.12-10.12zm-40.5-40.5a10.13 10.13 0 1010.13 10.13 10.13 10.13 0 00-10.13-10.13zm121.48 40.5a10.12 10.12 0 1010.12 10.12 10.13 10.13 0 00-10.12-10.12zm-40.49-40.5a10.13 10.13 0 1010.12 10.13 10.13 10.13 0 00-10.12-10.13zm121.47 40.5a10.12 10.12 0 1010.12 10.12 10.13 10.13 0 00-10.12-10.12zm-40.49-40.5a10.13 10.13 0 1010.12 10.13 10.14 10.14 0 00-10.12-10.13zm121.47 40.5a10.12 10.12 0 1010.12 10.12 10.12 10.12 0 00-10.12-10.12zm-40.49-40.5a10.13 10.13 0 1010.12 10.13 10.13 10.13 0 00-10.12-10.13zm121.47 40.5a10.12 10.12 0 1010.12 10.12 10.12 10.12 0 00-10.12-10.12zm-40.49-40.5a10.13 10.13 0 1010.12 10.13 10.13 10.13 0 00-10.12-10.13zm121.47 40.5a10.12 10.12 0 1010.12 10.12 10.12 10.12 0 00-10.12-10.12zm-40.49-40.5a10.13 10.13 0 1010.12 10.13 10.13 10.13 0 00-10.12-10.13zm121.47 40.5a10.12 10.12 0 1010.12 10.12 10.12 10.12 0 00-10.12-10.12zm-40.49-40.5a10.13 10.13 0 1010.12 10.13 10.13 10.13 0 00-10.12-10.13zm121.47 40.5a10.12 10.12 0 1010.12 10.12 10.12 10.12 0 00-10.12-10.12zm-40.49-40.5a10.13 10.13 0 1010.12 10.13 10.13 10.13 0 00-10.12-10.13zm81 0a10.13 10.13 0 1010.13 10.13 10.13 10.13 0 00-10.15-10.13zM2066.51 2094.2a10.12 10.12 0 1010.13 10.12 10.12 10.12 0 00-10.13-10.12zm-40.51-40.49a10.12 10.12 0 1010.13 10.12 10.12 10.12 0 00-10.13-10.12zm121.48 40.49a10.12 10.12 0 1010.12 10.12 10.12 10.12 0 00-10.1-10.12zm-40.48-40.49a10.12 10.12 0 1010.12 10.12 10.12 10.12 0 00-10.12-10.12zm121.47 40.49a10.12 10.12 0 1010.12 10.12 10.13 10.13 0 00-10.11-10.12zm-40.47-40.49a10.12 10.12 0 1010.12 10.12 10.13 10.13 0 00-10.12-10.12zm121.47 40.49a10.12 10.12 0 1010.12 10.12 10.13 10.13 0 00-10.13-10.12zm-40.47-40.49a10.12 10.12 0 1010.12 10.12 10.13 10.13 0 00-10.12-10.12zm121.47 40.49a10.12 10.12 0 1010.12 10.12 10.12 10.12 0 00-10.15-10.12zm-40.47-40.49a10.12 10.12 0 1010.12 10.12 10.12 10.12 0 00-10.12-10.12zm121.47 40.49a10.12 10.12 0 1010.12 10.12 10.12 10.12 0 00-10.17-10.12zm-40.49-40.49a10.12 10.12 0 1010.12 10.12 10.12 10.12 0 00-10.17-10.12zm121.47 40.49a10.12 10.12 0 1010.12 10.12 10.12 10.12 0 00-10.17-10.12zm-40.49-40.49a10.12 10.12 0 1010.12 10.12 10.12 10.12 0 00-10.17-10.12zm121.47 40.49a10.12 10.12 0 1010.12 10.12 10.12 10.12 0 00-10.17-10.12zm-40.49-40.49a10.12 10.12 0 1010.12 10.12 10.12 10.12 0 00-10.17-10.12zm121.47 40.49a10.12 10.12 0 1010.13 10.12 10.12 10.12 0 00-10.18-10.12zm-40.49-40.49a10.12 10.12 0 1010.12 10.12 10.12 10.12 0 00-10.17-10.12zm121.47 40.49a10.12 10.12 0 1010.13 10.12 10.12 10.12 0 00-10.18-10.12zm-40.49-40.49a10.12 10.12 0 1010.13 10.12 10.12 10.12 0 00-10.18-10.12zm121.47 40.49a10.12 10.12 0 1010.13 10.12 10.12 10.12 0 00-10.18-10.12zm-40.49-40.49a10.12 10.12 0 1010.13 10.12 10.12 10.12 0 00-10.18-10.12zm121.48 40.49a10.12 10.12 0 1010.12 10.12 10.12 10.12 0 00-10.17-10.12zm-40.5-40.49a10.12 10.12 0 1010.13 10.12 10.12 10.12 0 00-10.18-10.12zm121.48 40.49a10.12 10.12 0 1010.12 10.12 10.13 10.13 0 00-10.17-10.12zm-40.49-40.49a10.12 10.12 0 1010.12 10.12 10.12 10.12 0 00-10.17-10.12zm121.47 40.49a10.12 10.12 0 1010.12 10.12 10.13 10.13 0 00-10.17-10.12zm-40.49-40.49a10.12 10.12 0 1010.12 10.12 10.13 10.13 0 00-10.17-10.12zm121.47 40.49a10.12 10.12 0 1010.12 10.12 10.12 10.12 0 00-10.17-10.12zm-40.49-40.49a10.12 10.12 0 1010.12 10.12 10.12 10.12 0 00-10.17-10.12zm121.47 40.49a10.12 10.12 0 1010.12 10.12 10.12 10.12 0 00-10.17-10.12zm-40.49-40.49a10.12 10.12 0 1010.12 10.12 10.12 10.12 0 00-10.17-10.12zm121.47 40.49a10.12 10.12 0 1010.12 10.12 10.12 10.12 0 00-10.17-10.12zm-40.49-40.49a10.12 10.12 0 1010.12 10.12 10.12 10.12 0 00-10.17-10.12zm121.47 40.49a10.12 10.12 0 1010.12 10.12 10.12 10.12 0 00-10.17-10.12zm-40.49-40.49a10.12 10.12 0 1010.12 10.12 10.12 10.12 0 00-10.17-10.12zm121.47 40.49a10.12 10.12 0 1010.12 10.12 10.12 10.12 0 00-10.17-10.12zm-40.49-40.49a10.12 10.12 0 1010.12 10.12 10.12 10.12 0 00-10.17-10.12zm81 0a10.12 10.12 0 1010.13 10.12 10.12 10.12 0 00-10.2-10.12zm-1498.22 121.47a10.12 10.12 0 1010.13 10.12 10.12 10.12 0 00-10.13-10.12zm-40.51-40.49a10.12 10.12 0 1010.13 10.12 10.12 10.12 0 00-10.13-10.12zm121.48 40.49a10.12 10.12 0 1010.12 10.12 10.12 10.12 0 00-10.1-10.12zm-40.48-40.49a10.12 10.12 0 1010.12 10.12 10.12 10.12 0 00-10.12-10.12zm121.47 40.49a10.12 10.12 0 1010.12 10.12 10.13 10.13 0 00-10.11-10.12zm-40.47-40.49a10.12 10.12 0 1010.12 10.12 10.13 10.13 0 00-10.12-10.12zm121.47 40.49a10.12 10.12 0 1010.12 10.12 10.13 10.13 0 00-10.13-10.12zm-40.47-40.49a10.12 10.12 0 1010.12 10.12 10.13 10.13 0 00-10.12-10.12zm121.47 40.49a10.12 10.12 0 1010.12 10.12 10.12 10.12 0 00-10.15-10.12zm-40.47-40.49a10.12 10.12 0 1010.12 10.12 10.12 10.12 0 00-10.12-10.12zm121.47 40.49a10.12 10.12 0 1010.12 10.12 10.12 10.12 0 00-10.17-10.12zm-40.49-40.49a10.12 10.12 0 1010.12 10.12 10.12 10.12 0 00-10.17-10.12zm121.47 40.49a10.12 10.12 0 1010.12 10.12 10.12 10.12 0 00-10.17-10.12zm-40.49-40.49a10.12 10.12 0 1010.12 10.12 10.12 10.12 0 00-10.17-10.12zm121.47 40.49a10.12 10.12 0 1010.12 10.12 10.12 10.12 0 00-10.17-10.12zm-40.49-40.49a10.12 10.12 0 1010.12 10.12 10.12 10.12 0 00-10.17-10.12zm121.47 40.49a10.12 10.12 0 1010.13 10.12 10.12 10.12 0 00-10.18-10.12zm-40.49-40.49a10.12 10.12 0 1010.12 10.12 10.12 10.12 0 00-10.17-10.12zm121.47 40.49a10.12 10.12 0 1010.13 10.12 10.12 10.12 0 00-10.18-10.12zm-40.49-40.49a10.12 10.12 0 1010.13 10.12 10.12 10.12 0 00-10.18-10.12zm121.47 40.49a10.12 10.12 0 1010.13 10.12 10.12 10.12 0 00-10.18-10.12zm-40.49-40.49a10.12 10.12 0 1010.13 10.12 10.12 10.12 0 00-10.18-10.12zm121.48 40.49a10.12 10.12 0 1010.12 10.12 10.12 10.12 0 00-10.17-10.12zm-40.5-40.49a10.12 10.12 0 1010.13 10.12 10.12 10.12 0 00-10.18-10.12zm121.48 40.49a10.12 10.12 0 1010.12 10.12 10.13 10.13 0 00-10.17-10.12zm-40.49-40.49a10.12 10.12 0 1010.12 10.12 10.12 10.12 0 00-10.17-10.12zm121.47 40.49a10.12 10.12 0 1010.12 10.12 10.13 10.13 0 00-10.17-10.12zm-40.49-40.49a10.12 10.12 0 1010.12 10.12 10.13 10.13 0 00-10.17-10.12zm121.47 40.49a10.12 10.12 0 1010.12 10.12 10.12 10.12 0 00-10.17-10.12zm-40.49-40.49a10.12 10.12 0 1010.12 10.12 10.12 10.12 0 00-10.17-10.12zm121.47 40.49a10.12 10.12 0 1010.12 10.12 10.12 10.12 0 00-10.17-10.12zm-40.49-40.49a10.12 10.12 0 1010.12 10.12 10.12 10.12 0 00-10.17-10.12zm121.47 40.49a10.12 10.12 0 1010.12 10.12 10.12 10.12 0 00-10.17-10.12zm-40.49-40.49a10.12 10.12 0 1010.12 10.12 10.12 10.12 0 00-10.17-10.12zm121.47 40.49a10.12 10.12 0 1010.12 10.12 10.12 10.12 0 00-10.17-10.12zm-40.49-40.49a10.12 10.12 0 1010.12 10.12 10.12 10.12 0 00-10.17-10.12zm121.47 40.49a10.12 10.12 0 1010.12 10.12 10.12 10.12 0 00-10.17-10.12zm-40.49-40.49a10.12 10.12 0 1010.12 10.12 10.12 10.12 0 00-10.17-10.12zm81 0a10.12 10.12 0 1010.13 10.12 10.12 10.12 0 00-10.2-10.12zm-1498.22 121.47a10.12 10.12 0 1010.13 10.12 10.12 10.12 0 00-10.13-10.12zm-40.51-40.49a10.12 10.12 0 1010.13 10.12 10.12 10.12 0 00-10.13-10.12zm121.48 40.49a10.12 10.12 0 1010.12 10.12 10.12 10.12 0 00-10.1-10.12zm-40.48-40.49a10.12 10.12 0 1010.12 10.12 10.12 10.12 0 00-10.12-10.12zm121.47 40.49a10.12 10.12 0 1010.12 10.12 10.13 10.13 0 00-10.11-10.12zm-40.47-40.49a10.12 10.12 0 1010.12 10.12 10.13 10.13 0 00-10.12-10.12zm121.47 40.49a10.12 10.12 0 1010.12 10.12 10.13 10.13 0 00-10.13-10.12zm-40.47-40.49a10.12 10.12 0 1010.12 10.12 10.13 10.13 0 00-10.12-10.12zm121.47 40.49a10.12 10.12 0 1010.12 10.12 10.12 10.12 0 00-10.15-10.12zm-40.47-40.49a10.12 10.12 0 1010.12 10.12 10.12 10.12 0 00-10.12-10.12zm121.47 40.49a10.12 10.12 0 1010.12 10.12 10.12 10.12 0 00-10.17-10.12zm-40.49-40.49a10.12 10.12 0 1010.12 10.12 10.12 10.12 0 00-10.17-10.12zm121.47 40.49a10.12 10.12 0 1010.12 10.12 10.12 10.12 0 00-10.17-10.12zm-40.49-40.49a10.12 10.12 0 1010.12 10.12 10.12 10.12 0 00-10.17-10.12zm121.47 40.49a10.12 10.12 0 1010.12 10.12 10.12 10.12 0 00-10.17-10.12zm-40.49-40.49a10.12 10.12 0 1010.12 10.12 10.12 10.12 0 00-10.17-10.12zm121.47 40.49a10.12 10.12 0 1010.13 10.12 10.12 10.12 0 00-10.18-10.12zm-40.49-40.49a10.12 10.12 0 1010.12 10.12 10.12 10.12 0 00-10.17-10.12zm121.47 40.49a10.12 10.12 0 1010.13 10.12 10.12 10.12 0 00-10.18-10.12zm-40.49-40.49a10.12 10.12 0 1010.13 10.12 10.12 10.12 0 00-10.18-10.12zm121.47 40.49a10.12 10.12 0 1010.13 10.12 10.12 10.12 0 00-10.18-10.12zm-40.49-40.49a10.12 10.12 0 1010.13 10.12 10.12 10.12 0 00-10.18-10.12zm121.48 40.49a10.12 10.12 0 1010.12 10.12 10.12 10.12 0 00-10.17-10.12zm-40.5-40.49a10.12 10.12 0 1010.13 10.12 10.12 10.12 0 00-10.18-10.12zm121.48 40.49a10.12 10.12 0 1010.12 10.12 10.13 10.13 0 00-10.17-10.12zm-40.49-40.49a10.12 10.12 0 1010.12 10.12 10.12 10.12 0 00-10.17-10.12zm121.47 40.49a10.12 10.12 0 1010.12 10.12 10.13 10.13 0 00-10.17-10.12zm-40.49-40.49a10.12 10.12 0 1010.12 10.12 10.13 10.13 0 00-10.17-10.12zm121.47 40.49a10.12 10.12 0 1010.12 10.12 10.12 10.12 0 00-10.17-10.12zm-40.49-40.49a10.12 10.12 0 1010.12 10.12 10.12 10.12 0 00-10.17-10.12zm121.47 40.49a10.12 10.12 0 1010.12 10.12 10.12 10.12 0 00-10.17-10.12zm-40.49-40.49a10.12 10.12 0 1010.12 10.12 10.12 10.12 0 00-10.17-10.12zm121.47 40.49a10.12 10.12 0 1010.12 10.12 10.12 10.12 0 00-10.17-10.12zm-40.49-40.49a10.12 10.12 0 1010.12 10.12 10.12 10.12 0 00-10.17-10.12zm121.47 40.49a10.12 10.12 0 1010.12 10.12 10.12 10.12 0 00-10.17-10.12zm-40.49-40.49a10.12 10.12 0 1010.12 10.12 10.12 10.12 0 00-10.17-10.12zm121.47 40.49a10.12 10.12 0 1010.12 10.12 10.12 10.12 0 00-10.17-10.12zm-40.49-40.49a10.12 10.12 0 1010.12 10.12 10.12 10.12 0 00-10.17-10.12zm81 0a10.12 10.12 0 1010.13 10.12 10.12 10.12 0 00-10.2-10.12zm-1498.22 121.47a10.12 10.12 0 1010.13 10.12 10.12 10.12 0 00-10.13-10.12zm-40.51-40.49a10.12 10.12 0 1010.13 10.12 10.12 10.12 0 00-10.13-10.12zm121.48 40.49a10.12 10.12 0 1010.12 10.12 10.12 10.12 0 00-10.1-10.12zm-40.48-40.49a10.12 10.12 0 1010.12 10.12 10.12 10.12 0 00-10.12-10.12zm121.47 40.49a10.12 10.12 0 1010.12 10.12 10.13 10.13 0 00-10.11-10.12zm-40.47-40.49a10.12 10.12 0 1010.12 10.12 10.13 10.13 0 00-10.12-10.12zm121.47 40.49a10.12 10.12 0 1010.12 10.12 10.13 10.13 0 00-10.13-10.12zm-40.47-40.49a10.12 10.12 0 1010.12 10.12 10.13 10.13 0 00-10.12-10.12zm121.47 40.49a10.12 10.12 0 1010.12 10.12 10.12 10.12 0 00-10.15-10.12zm-40.47-40.49a10.12 10.12 0 1010.12 10.12 10.12 10.12 0 00-10.12-10.12zm121.47 40.49a10.12 10.12 0 1010.12 10.12 10.12 10.12 0 00-10.17-10.12zm-40.49-40.49a10.12 10.12 0 1010.12 10.12 10.12 10.12 0 00-10.17-10.12zm121.47 40.49a10.12 10.12 0 1010.12 10.12 10.12 10.12 0 00-10.17-10.12zm-40.49-40.49a10.12 10.12 0 1010.12 10.12 10.12 10.12 0 00-10.17-10.12zm121.47 40.49a10.12 10.12 0 1010.12 10.12 10.12 10.12 0 00-10.17-10.12zm-40.49-40.49a10.12 10.12 0 1010.12 10.12 10.12 10.12 0 00-10.17-10.12zm121.47 40.49a10.12 10.12 0 1010.13 10.12 10.12 10.12 0 00-10.18-10.12zm-40.49-40.49a10.12 10.12 0 1010.12 10.12 10.12 10.12 0 00-10.17-10.12zm121.47 40.49a10.12 10.12 0 1010.13 10.12 10.12 10.12 0 00-10.18-10.12zm-40.49-40.49a10.12 10.12 0 1010.13 10.12 10.12 10.12 0 00-10.18-10.12zm121.47 40.49a10.12 10.12 0 1010.13 10.12 10.12 10.12 0 00-10.18-10.12zm-40.49-40.49a10.12 10.12 0 1010.13 10.12 10.12 10.12 0 00-10.18-10.12zm121.48 40.49a10.12 10.12 0 1010.12 10.12 10.12 10.12 0 00-10.17-10.12zm-40.5-40.49a10.12 10.12 0 1010.13 10.12 10.12 10.12 0 00-10.18-10.12zm121.48 40.49a10.12 10.12 0 1010.12 10.12 10.13 10.13 0 00-10.17-10.12zm-40.49-40.49a10.12 10.12 0 1010.12 10.12 10.12 10.12 0 00-10.17-10.12zm121.47 40.49a10.12 10.12 0 1010.12 10.12 10.13 10.13 0 00-10.17-10.12zm-40.49-40.49a10.12 10.12 0 1010.12 10.12 10.13 10.13 0 00-10.17-10.12zm121.47 40.49a10.12 10.12 0 1010.12 10.12 10.12 10.12 0 00-10.17-10.12zm-40.49-40.49a10.12 10.12 0 1010.12 10.12 10.12 10.12 0 00-10.17-10.12zm121.47 40.49a10.12 10.12 0 1010.12 10.12 10.12 10.12 0 00-10.17-10.12zm-40.49-40.49a10.12 10.12 0 1010.12 10.12 10.12 10.12 0 00-10.17-10.12zm121.47 40.49a10.12 10.12 0 1010.12 10.12 10.12 10.12 0 00-10.17-10.12zm-40.49-40.49a10.12 10.12 0 1010.12 10.12 10.12 10.12 0 00-10.17-10.12zm121.47 40.49a10.12 10.12 0 1010.12 10.12 10.12 10.12 0 00-10.17-10.12zm-40.49-40.49a10.12 10.12 0 1010.12 10.12 10.12 10.12 0 00-10.17-10.12zm121.47 40.49a10.12 10.12 0 1010.12 10.12 10.12 10.12 0 00-10.17-10.12zm-40.49-40.49a10.12 10.12 0 1010.12 10.12 10.12 10.12 0 00-10.17-10.12zm81 0a10.12 10.12 0 1010.13 10.12 10.12 10.12 0 00-10.2-10.12zm-1498.22 121.47a10.13 10.13 0 1010.13 10.12 10.12 10.12 0 00-10.13-10.12zm-40.51-40.49a10.12 10.12 0 1010.13 10.12 10.12 10.12 0 00-10.13-10.12zm121.48 40.49a10.13 10.13 0 1010.12 10.12 10.12 10.12 0 00-10.1-10.12zm-40.48-40.49a10.12 10.12 0 1010.12 10.12 10.12 10.12 0 00-10.12-10.12zm121.47 40.49a10.13 10.13 0 1010.12 10.12 10.13 10.13 0 00-10.11-10.12zm-40.47-40.49a10.12 10.12 0 1010.12 10.12 10.13 10.13 0 00-10.12-10.12zm121.47 40.49a10.13 10.13 0 1010.12 10.12 10.13 10.13 0 00-10.13-10.12zm-40.47-40.49a10.12 10.12 0 1010.12 10.12 10.13 10.13 0 00-10.12-10.12zm121.47 40.49a10.13 10.13 0 1010.12 10.12 10.12 10.12 0 00-10.15-10.12zm-40.47-40.49a10.12 10.12 0 1010.12 10.12 10.12 10.12 0 00-10.12-10.12zm121.47 40.49a10.13 10.13 0 1010.12 10.12 10.12 10.12 0 00-10.17-10.12zm-40.49-40.49a10.12 10.12 0 1010.12 10.12 10.12 10.12 0 00-10.17-10.12zm121.47 40.49a10.13 10.13 0 1010.12 10.12 10.12 10.12 0 00-10.17-10.12zm-40.49-40.49a10.12 10.12 0 1010.12 10.12 10.12 10.12 0 00-10.17-10.12zm121.47 40.49a10.13 10.13 0 1010.12 10.12 10.12 10.12 0 00-10.17-10.12zm-40.49-40.49a10.12 10.12 0 1010.12 10.12 10.12 10.12 0 00-10.17-10.12zm121.47 40.49a10.13 10.13 0 1010.13 10.12 10.12 10.12 0 00-10.18-10.12zm-40.49-40.49a10.12 10.12 0 1010.12 10.12 10.12 10.12 0 00-10.17-10.12zm121.47 40.49a10.13 10.13 0 1010.13 10.12 10.12 10.12 0 00-10.18-10.12zm-40.49-40.49a10.12 10.12 0 1010.13 10.12 10.12 10.12 0 00-10.18-10.12zm121.47 40.49a10.13 10.13 0 1010.13 10.12 10.12 10.12 0 00-10.18-10.12zm-40.49-40.49a10.12 10.12 0 1010.13 10.12 10.12 10.12 0 00-10.18-10.12zm121.48 40.49a10.13 10.13 0 1010.12 10.12 10.12 10.12 0 00-10.17-10.12zm-40.5-40.49a10.12 10.12 0 1010.13 10.12 10.12 10.12 0 00-10.18-10.12zm121.48 40.49a10.13 10.13 0 1010.12 10.12 10.13 10.13 0 00-10.17-10.12zm-40.49-40.49a10.12 10.12 0 1010.12 10.12 10.12 10.12 0 00-10.17-10.12zm121.47 40.49a10.13 10.13 0 1010.12 10.12 10.13 10.13 0 00-10.17-10.12zm-40.49-40.49a10.12 10.12 0 1010.12 10.12 10.13 10.13 0 00-10.17-10.12zm121.47 40.49a10.13 10.13 0 1010.12 10.12 10.12 10.12 0 00-10.17-10.12zm-40.49-40.49a10.12 10.12 0 1010.12 10.12 10.12 10.12 0 00-10.17-10.12zm121.47 40.49a10.13 10.13 0 1010.12 10.12 10.12 10.12 0 00-10.17-10.12zm-40.49-40.49a10.12 10.12 0 1010.12 10.12 10.12 10.12 0 00-10.17-10.12zm121.47 40.49a10.13 10.13 0 1010.12 10.12 10.12 10.12 0 00-10.17-10.12zm-40.49-40.49a10.12 10.12 0 1010.12 10.12 10.12 10.12 0 00-10.17-10.12zm121.47 40.49a10.13 10.13 0 1010.12 10.12 10.12 10.12 0 00-10.17-10.12zm-40.49-40.49a10.12 10.12 0 1010.12 10.12 10.12 10.12 0 00-10.17-10.12zm121.47 40.49a10.13 10.13 0 1010.12 10.12 10.12 10.12 0 00-10.17-10.12zm-40.49-40.49a10.12 10.12 0 1010.12 10.12 10.12 10.12 0 00-10.17-10.12zm81 0a10.12 10.12 0 1010.13 10.12 10.12 10.12 0 00-10.2-10.12zM2066.51 2499.1a10.13 10.13 0 1010.13 10.12 10.12 10.12 0 00-10.13-10.12zm-40.51-40.49a10.13 10.13 0 1010.13 10.12 10.12 10.12 0 00-10.13-10.12zm121.48 40.49a10.13 10.13 0 1010.12 10.12 10.12 10.12 0 00-10.1-10.12zm-40.48-40.49a10.13 10.13 0 1010.12 10.12 10.12 10.12 0 00-10.12-10.12zm121.47 40.49a10.13 10.13 0 1010.12 10.12 10.13 10.13 0 00-10.11-10.12zm-40.47-40.49a10.13 10.13 0 1010.12 10.12 10.13 10.13 0 00-10.12-10.12zm121.47 40.49a10.13 10.13 0 1010.12 10.12 10.13 10.13 0 00-10.13-10.12zm-40.47-40.49a10.13 10.13 0 1010.12 10.12 10.13 10.13 0 00-10.12-10.12zm121.47 40.49a10.13 10.13 0 1010.12 10.12 10.12 10.12 0 00-10.15-10.12zm-40.47-40.49a10.13 10.13 0 1010.12 10.12 10.12 10.12 0 00-10.12-10.12zm121.47 40.49a10.13 10.13 0 1010.12 10.12 10.12 10.12 0 00-10.17-10.12zm-40.49-40.49a10.13 10.13 0 1010.12 10.12 10.12 10.12 0 00-10.17-10.12zm121.47 40.49a10.13 10.13 0 1010.12 10.12 10.12 10.12 0 00-10.17-10.12zm-40.49-40.49a10.13 10.13 0 1010.12 10.12 10.12 10.12 0 00-10.17-10.12zm121.47 40.49a10.13 10.13 0 1010.12 10.12 10.12 10.12 0 00-10.17-10.12zm-40.49-40.49a10.13 10.13 0 1010.12 10.12 10.12 10.12 0 00-10.17-10.12zm121.47 40.49a10.13 10.13 0 1010.13 10.12 10.12 10.12 0 00-10.18-10.12zm-40.49-40.49a10.13 10.13 0 1010.12 10.12 10.12 10.12 0 00-10.17-10.12zm121.47 40.49a10.13 10.13 0 1010.13 10.12 10.12 10.12 0 00-10.18-10.12zm-40.49-40.49a10.13 10.13 0 1010.13 10.12 10.12 10.12 0 00-10.18-10.12zm121.47 40.49a10.13 10.13 0 1010.13 10.12 10.12 10.12 0 00-10.18-10.12zm-40.49-40.49a10.13 10.13 0 1010.13 10.12 10.12 10.12 0 00-10.18-10.12zm121.48 40.49a10.13 10.13 0 1010.12 10.12 10.12 10.12 0 00-10.17-10.12zm-40.5-40.49a10.13 10.13 0 1010.13 10.12 10.12 10.12 0 00-10.18-10.12zm121.48 40.49a10.13 10.13 0 1010.12 10.12 10.13 10.13 0 00-10.17-10.12zm-40.49-40.49a10.13 10.13 0 1010.12 10.12 10.12 10.12 0 00-10.17-10.12zm121.47 40.49a10.13 10.13 0 1010.12 10.12 10.13 10.13 0 00-10.17-10.12zm-40.49-40.49a10.13 10.13 0 1010.12 10.12 10.13 10.13 0 00-10.17-10.12zm121.47 40.49a10.13 10.13 0 1010.12 10.12 10.12 10.12 0 00-10.17-10.12zm-40.49-40.49a10.13 10.13 0 1010.12 10.12 10.12 10.12 0 00-10.17-10.12zm121.47 40.49a10.13 10.13 0 1010.12 10.12 10.12 10.12 0 00-10.17-10.12zm-40.49-40.49a10.13 10.13 0 1010.12 10.12 10.12 10.12 0 00-10.17-10.12zm121.47 40.49a10.13 10.13 0 1010.12 10.12 10.12 10.12 0 00-10.17-10.12zm-40.49-40.49a10.13 10.13 0 1010.12 10.12 10.12 10.12 0 00-10.17-10.12zm121.47 40.49a10.13 10.13 0 1010.12 10.12 10.12 10.12 0 00-10.17-10.12zm-40.49-40.49a10.13 10.13 0 1010.12 10.12 10.12 10.12 0 00-10.17-10.12zm121.47 40.49a10.13 10.13 0 1010.12 10.12 10.12 10.12 0 00-10.17-10.12zm-40.49-40.49a10.13 10.13 0 1010.12 10.12 10.12 10.12 0 00-10.17-10.12zm81 0a10.13 10.13 0 1010.13 10.12 10.12 10.12 0 00-10.2-10.12zm-1498.22 121.47a10.13 10.13 0 1010.13 10.12 10.12 10.12 0 00-10.13-10.12zm-40.51-40.49a10.13 10.13 0 1010.13 10.12 10.12 10.12 0 00-10.13-10.12zm121.48 40.49a10.13 10.13 0 1010.12 10.12 10.12 10.12 0 00-10.1-10.12zm-40.48-40.49a10.13 10.13 0 1010.12 10.12 10.12 10.12 0 00-10.12-10.12zm121.47 40.49a10.13 10.13 0 1010.12 10.12 10.13 10.13 0 00-10.11-10.12zm-40.47-40.49a10.13 10.13 0 1010.12 10.12 10.13 10.13 0 00-10.12-10.12zm121.47 40.49a10.13 10.13 0 1010.12 10.12 10.13 10.13 0 00-10.13-10.12zm-40.47-40.49a10.13 10.13 0 1010.12 10.12 10.13 10.13 0 00-10.12-10.12zm121.47 40.49a10.13 10.13 0 1010.12 10.12 10.12 10.12 0 00-10.15-10.12zm-40.47-40.49a10.13 10.13 0 1010.12 10.12 10.12 10.12 0 00-10.12-10.12zm121.47 40.49a10.13 10.13 0 1010.12 10.12 10.12 10.12 0 00-10.17-10.12zm-40.49-40.49a10.13 10.13 0 1010.12 10.12 10.12 10.12 0 00-10.17-10.12zm121.47 40.49a10.13 10.13 0 1010.12 10.12 10.12 10.12 0 00-10.17-10.12zm-40.49-40.49a10.13 10.13 0 1010.12 10.12 10.12 10.12 0 00-10.17-10.12zm121.47 40.49a10.13 10.13 0 1010.12 10.12 10.12 10.12 0 00-10.17-10.12zm-40.49-40.49a10.13 10.13 0 1010.12 10.12 10.12 10.12 0 00-10.17-10.12zm121.47 40.49a10.13 10.13 0 1010.13 10.12 10.12 10.12 0 00-10.18-10.12zm-40.49-40.49a10.13 10.13 0 1010.12 10.12 10.12 10.12 0 00-10.17-10.12zm121.47 40.49a10.13 10.13 0 1010.13 10.12 10.12 10.12 0 00-10.18-10.12zm-40.49-40.49a10.13 10.13 0 1010.13 10.12 10.12 10.12 0 00-10.18-10.12zm121.47 40.49a10.13 10.13 0 1010.13 10.12 10.12 10.12 0 00-10.18-10.12zm-40.49-40.49a10.13 10.13 0 1010.13 10.12 10.12 10.12 0 00-10.18-10.12zm121.48 40.49a10.13 10.13 0 1010.12 10.12 10.12 10.12 0 00-10.17-10.12zm-40.5-40.49a10.13 10.13 0 1010.13 10.12 10.12 10.12 0 00-10.18-10.12zm121.48 40.49a10.13 10.13 0 1010.12 10.12 10.13 10.13 0 00-10.17-10.12zm-40.49-40.49a10.13 10.13 0 1010.12 10.12 10.12 10.12 0 00-10.17-10.12zm121.47 40.49a10.13 10.13 0 1010.12 10.12 10.13 10.13 0 00-10.17-10.12zm-40.49-40.49a10.13 10.13 0 1010.12 10.12 10.13 10.13 0 00-10.17-10.12zm121.47 40.49a10.13 10.13 0 1010.12 10.12 10.12 10.12 0 00-10.17-10.12zm-40.49-40.49a10.13 10.13 0 1010.12 10.12 10.12 10.12 0 00-10.17-10.12zm121.47 40.49a10.13 10.13 0 1010.12 10.12 10.12 10.12 0 00-10.17-10.12zm-40.49-40.49a10.13 10.13 0 1010.12 10.12 10.12 10.12 0 00-10.17-10.12zm121.47 40.49a10.13 10.13 0 1010.12 10.12 10.12 10.12 0 00-10.17-10.12zm-40.49-40.49a10.13 10.13 0 1010.12 10.12 10.12 10.12 0 00-10.17-10.12zm121.47 40.49a10.13 10.13 0 1010.12 10.12 10.12 10.12 0 00-10.17-10.12zm-40.49-40.49a10.13 10.13 0 1010.12 10.12 10.12 10.12 0 00-10.17-10.12zm121.47 40.49a10.13 10.13 0 1010.12 10.12 10.12 10.12 0 00-10.17-10.12zm-40.49-40.49a10.13 10.13 0 1010.12 10.12 10.12 10.12 0 00-10.17-10.12zm81 0a10.13 10.13 0 1010.13 10.12 10.12 10.12 0 00-10.2-10.12zm-1498.22 121.47a10.13 10.13 0 1010.13 10.13 10.12 10.12 0 00-10.13-10.13zm-40.51-40.49a10.13 10.13 0 1010.13 10.13 10.12 10.12 0 00-10.13-10.13zm121.48 40.49a10.13 10.13 0 1010.12 10.13 10.12 10.12 0 00-10.1-10.13zm-40.48-40.49a10.13 10.13 0 1010.12 10.13 10.12 10.12 0 00-10.12-10.13zm121.47 40.49a10.13 10.13 0 1010.12 10.13 10.13 10.13 0 00-10.11-10.13zm-40.47-40.49a10.13 10.13 0 1010.12 10.13 10.13 10.13 0 00-10.12-10.13zm121.47 40.49a10.13 10.13 0 1010.12 10.13 10.13 10.13 0 00-10.13-10.13zm-40.47-40.49a10.13 10.13 0 1010.12 10.13 10.13 10.13 0 00-10.12-10.13zm121.47 40.49a10.13 10.13 0 1010.12 10.13 10.12 10.12 0 00-10.15-10.13zm-40.47-40.49a10.13 10.13 0 1010.12 10.13 10.12 10.12 0 00-10.12-10.13zm121.47 40.49a10.13 10.13 0 1010.12 10.13 10.12 10.12 0 00-10.17-10.13zm-40.49-40.49a10.13 10.13 0 1010.12 10.13 10.12 10.12 0 00-10.17-10.13zm121.47 40.49a10.13 10.13 0 1010.12 10.13 10.12 10.12 0 00-10.17-10.13zm-40.49-40.49a10.13 10.13 0 1010.04 10.13 10.12 10.12 0 00-10.09-10.13zm121.47 40.49a10.13 10.13 0 1010.12 10.13 10.12 10.12 0 00-10.17-10.13zm-40.49-40.49a10.13 10.13 0 1010.06 10.13 10.12 10.12 0 00-10.11-10.13zm121.47 40.49a10.13 10.13 0 1010.13 10.13 10.12 10.12 0 00-10.18-10.13zm-40.49-40.49a10.13 10.13 0 1010.08 10.13 10.12 10.12 0 00-10.13-10.13zm121.47 40.49a10.13 10.13 0 1010.13 10.13 10.12 10.12 0 00-10.18-10.13zm-40.49-40.49a10.13 10.13 0 1010.1 10.13 10.12 10.12 0 00-10.15-10.13zm121.47 40.49a10.13 10.13 0 1010.13 10.13 10.12 10.12 0 00-10.18-10.13zm-40.49-40.49a10.13 10.13 0 1010.12 10.13 10.12 10.12 0 00-10.17-10.13zm121.48 40.49a10.13 10.13 0 1010.12 10.13 10.12 10.12 0 00-10.17-10.13zm-40.5-40.49a10.13 10.13 0 1010.13 10.13 10.12 10.12 0 00-10.18-10.13zm121.48 40.49a10.13 10.13 0 1010.12 10.13 10.13 10.13 0 00-10.17-10.13zm-40.49-40.49a10.13 10.13 0 1010.12 10.13 10.12 10.12 0 00-10.17-10.13zm121.47 40.49a10.13 10.13 0 1010.12 10.13 10.13 10.13 0 00-10.17-10.13zm-40.49-40.49a10.13 10.13 0 1010.12 10.13 10.13 10.13 0 00-10.17-10.13zm121.47 40.49a10.13 10.13 0 1010.12 10.13 10.12 10.12 0 00-10.17-10.13zm-40.49-40.49a10.13 10.13 0 1010.12 10.13 10.12 10.12 0 00-10.17-10.13zm121.47 40.49a10.13 10.13 0 1010.12 10.13 10.12 10.12 0 00-10.17-10.13zm-40.49-40.49a10.13 10.13 0 1010.12 10.13 10.12 10.12 0 00-10.17-10.13zm121.47 40.49a10.13 10.13 0 1010.12 10.13 10.12 10.12 0 00-10.17-10.13zm-40.49-40.49a10.13 10.13 0 1010.12 10.13 10.12 10.12 0 00-10.17-10.13zm121.47 40.49a10.13 10.13 0 1010.12 10.13 10.12 10.12 0 00-10.17-10.13zm-40.49-40.49a10.13 10.13 0 1010.12 10.13 10.12 10.12 0 00-10.17-10.13zm121.47 40.49a10.13 10.13 0 1010.12 10.13 10.12 10.12 0 00-10.17-10.13zm-40.49-40.49a10.13 10.13 0 1010.12 10.13 10.12 10.12 0 00-10.17-10.13zm81 0a10.13 10.13 0 1010.13 10.13 10.12 10.12 0 00-10.2-10.13zM2066.51 2742a10.13 10.13 0 1010.13 10.13 10.13 10.13 0 00-10.13-10.13zm-40.51-40.45a10.13 10.13 0 1010.13 10.13 10.13 10.13 0 00-10.13-10.13zm121.5 40.45a10.13 10.13 0 1010.12 10.13 10.13 10.13 0 00-10.12-10.13zm-40.5-40.45a10.13 10.13 0 1010.12 10.13 10.13 10.13 0 00-10.12-10.13zm121.48 40.45a10.13 10.13 0 1010.12 10.13 10.14 10.14 0 00-10.12-10.13zm-40.48-40.45a10.13 10.13 0 1010.12 10.13 10.14 10.14 0 00-10.12-10.13zm121.46 40.45a10.13 10.13 0 1010.12 10.13 10.14 10.14 0 00-10.12-10.13zm-40.46-40.45a10.13 10.13 0 1010.12 10.13 10.14 10.14 0 00-10.12-10.13zm121.44 40.45a10.13 10.13 0 1010.12 10.13 10.13 10.13 0 00-10.12-10.13zm-40.44-40.45a10.13 10.13 0 1010.12 10.13 10.13 10.13 0 00-10.12-10.13zm121.42 40.45a10.13 10.13 0 1010.12 10.13 10.13 10.13 0 00-10.12-10.13zm-40.49-40.49a10.13 10.13 0 1010.12 10.13 10.13 10.13 0 00-10.12-10.09zM2552.4 2742a10.13 10.13 0 1010.12 10.13 10.13 10.13 0 00-10.12-10.13zm-40.49-40.49a10.13 10.13 0 1010.12 10.13 10.13 10.13 0 00-10.12-10.09zm121.47 40.49a10.13 10.13 0 1010.12 10.13 10.13 10.13 0 00-10.12-10.13zm-40.49-40.49a10.13 10.13 0 1010.12 10.13 10.13 10.13 0 00-10.12-10.09zm121.47 40.49a10.13 10.13 0 1010.13 10.13 10.13 10.13 0 00-10.13-10.13zm-40.49-40.49a10.13 10.13 0 1010.12 10.13 10.13 10.13 0 00-10.12-10.09zm121.47 40.49a10.13 10.13 0 1010.13 10.13 10.13 10.13 0 00-10.13-10.13zm-40.49-40.49a10.13 10.13 0 1010.13 10.13 10.13 10.13 0 00-10.13-10.09zm121.47 40.49a10.13 10.13 0 1010.13 10.13 10.13 10.13 0 00-10.13-10.13zm-40.49-40.49a10.13 10.13 0 1010.13 10.13 10.13 10.13 0 00-10.13-10.09zm121.48 40.49a10.13 10.13 0 1010.12 10.13 10.13 10.13 0 00-10.12-10.13zm-40.5-40.49a10.13 10.13 0 1010.13 10.13 10.13 10.13 0 00-10.13-10.09zm121.48 40.49a10.13 10.13 0 1010.12 10.13 10.14 10.14 0 00-10.12-10.13zm-40.49-40.49a10.13 10.13 0 1010.12 10.13 10.13 10.13 0 00-10.12-10.09zm121.47 40.49a10.13 10.13 0 1010.12 10.13 10.14 10.14 0 00-10.12-10.13zm-40.49-40.49a10.13 10.13 0 1010.12 10.13 10.14 10.14 0 00-10.12-10.09zm121.47 40.49a10.13 10.13 0 1010.12 10.13 10.13 10.13 0 00-10.12-10.13zm-40.49-40.49a10.13 10.13 0 1010.12 10.13 10.13 10.13 0 00-10.12-10.09zm121.47 40.49a10.13 10.13 0 1010.12 10.13 10.13 10.13 0 00-10.12-10.13zm-40.49-40.49a10.13 10.13 0 1010.12 10.13 10.13 10.13 0 00-10.12-10.09zm121.47 40.49a10.13 10.13 0 1010.12 10.13 10.13 10.13 0 00-10.12-10.13zm-40.49-40.49a10.13 10.13 0 1010.12 10.13 10.13 10.13 0 00-10.12-10.09zm121.47 40.49a10.13 10.13 0 1010.12 10.13 10.13 10.13 0 00-10.12-10.13zm-40.49-40.49a10.13 10.13 0 1010.12 10.13 10.13 10.13 0 00-10.12-10.09zm121.47 40.49a10.13 10.13 0 1010.12 10.13 10.13 10.13 0 00-10.12-10.13zm-40.49-40.49a10.13 10.13 0 1010.12 10.13 10.13 10.13 0 00-10.12-10.09zm81 0a10.13 10.13 0 1010.13 10.13 10.13 10.13 0 00-10.15-10.09zM2066.51 2823a10.13 10.13 0 1010.13 10.13 10.13 10.13 0 00-10.13-10.13zm-40.51-40.47a10.13 10.13 0 1010.13 10.13 10.13 10.13 0 00-10.13-10.13zm121.5 40.47a10.13 10.13 0 1010.12 10.13 10.13 10.13 0 00-10.12-10.13zm-40.5-40.47a10.13 10.13 0 1010.12 10.13 10.13 10.13 0 00-10.12-10.13zm121.48 40.47a10.13 10.13 0 1010.12 10.13 10.14 10.14 0 00-10.12-10.13zm-40.48-40.47a10.13 10.13 0 1010.12 10.13 10.14 10.14 0 00-10.12-10.13zm121.46 40.47a10.13 10.13 0 1010.12 10.13 10.14 10.14 0 00-10.12-10.13zm-40.46-40.47a10.13 10.13 0 1010.12 10.13 10.14 10.14 0 00-10.12-10.13zm121.44 40.47a10.13 10.13 0 1010.12 10.13 10.13 10.13 0 00-10.12-10.13zm-40.44-40.47a10.13 10.13 0 1010.12 10.13 10.13 10.13 0 00-10.12-10.13zm121.42 40.47a10.13 10.13 0 1010.12 10.13 10.13 10.13 0 00-10.12-10.13zm-40.49-40.49a10.13 10.13 0 1010.12 10.13 10.13 10.13 0 00-10.12-10.11zM2552.4 2823a10.13 10.13 0 1010.12 10.13 10.13 10.13 0 00-10.12-10.13zm-40.49-40.49a10.13 10.13 0 1010.12 10.13 10.13 10.13 0 00-10.12-10.11zm121.47 40.49a10.13 10.13 0 1010.12 10.13 10.13 10.13 0 00-10.12-10.13zm-40.49-40.49a10.13 10.13 0 1010.12 10.13 10.13 10.13 0 00-10.12-10.11zm121.47 40.49a10.13 10.13 0 1010.13 10.13 10.13 10.13 0 00-10.13-10.13zm-40.49-40.49a10.13 10.13 0 1010.12 10.13 10.13 10.13 0 00-10.12-10.11zm121.47 40.49a10.13 10.13 0 1010.13 10.13 10.13 10.13 0 00-10.13-10.13zm-40.49-40.49a10.13 10.13 0 1010.13 10.13 10.13 10.13 0 00-10.13-10.11zm121.47 40.49a10.13 10.13 0 1010.13 10.13 10.13 10.13 0 00-10.13-10.13zm-40.49-40.49a10.13 10.13 0 1010.13 10.13 10.13 10.13 0 00-10.13-10.11zm121.48 40.49a10.13 10.13 0 1010.12 10.13 10.13 10.13 0 00-10.12-10.13zm-40.5-40.49a10.13 10.13 0 1010.13 10.13 10.13 10.13 0 00-10.13-10.11zm121.48 40.49a10.13 10.13 0 1010.12 10.13 10.14 10.14 0 00-10.12-10.13zm-40.49-40.49a10.13 10.13 0 1010.12 10.13 10.13 10.13 0 00-10.12-10.11zm121.47 40.49a10.13 10.13 0 1010.12 10.13 10.14 10.14 0 00-10.12-10.13zm-40.49-40.49a10.13 10.13 0 1010.12 10.13 10.14 10.14 0 00-10.12-10.11zm121.47 40.49a10.13 10.13 0 1010.12 10.13 10.13 10.13 0 00-10.12-10.13zm-40.49-40.49a10.13 10.13 0 1010.12 10.13 10.13 10.13 0 00-10.12-10.11zm121.47 40.49a10.13 10.13 0 1010.12 10.13 10.13 10.13 0 00-10.12-10.13zm-40.49-40.49a10.13 10.13 0 1010.12 10.13 10.13 10.13 0 00-10.12-10.11zm121.47 40.49a10.13 10.13 0 1010.12 10.13 10.13 10.13 0 00-10.12-10.13zm-40.49-40.49a10.13 10.13 0 1010.12 10.13 10.13 10.13 0 00-10.12-10.11zm121.47 40.49a10.13 10.13 0 1010.12 10.13 10.13 10.13 0 00-10.12-10.13zm-40.49-40.49a10.13 10.13 0 1010.12 10.13 10.13 10.13 0 00-10.12-10.11zm121.47 40.49a10.13 10.13 0 1010.12 10.13 10.13 10.13 0 00-10.12-10.13zm-40.49-40.49a10.13 10.13 0 1010.12 10.13 10.13 10.13 0 00-10.12-10.11zm81 0a10.13 10.13 0 1010.13 10.13 10.13 10.13 0 00-10.15-10.11zM2066.51 2904a10.12 10.12 0 1010.13 10.12 10.12 10.12 0 00-10.13-10.12zm-40.51-40.48a10.12 10.12 0 1010.13 10.12 10.12 10.12 0 00-10.13-10.12zm121.5 40.48a10.12 10.12 0 1010.12 10.12 10.12 10.12 0 00-10.12-10.12zm-40.5-40.48a10.12 10.12 0 1010.12 10.12 10.12 10.12 0 00-10.12-10.12zm121.48 40.48a10.12 10.12 0 1010.12 10.12 10.13 10.13 0 00-10.12-10.12zm-40.48-40.48a10.12 10.12 0 1010.12 10.12 10.13 10.13 0 00-10.12-10.12zm121.46 40.48a10.12 10.12 0 1010.12 10.12 10.13 10.13 0 00-10.12-10.12zm-40.46-40.48a10.12 10.12 0 1010.12 10.12 10.13 10.13 0 00-10.12-10.12zm121.44 40.48a10.12 10.12 0 1010.12 10.12 10.12 10.12 0 00-10.12-10.12zm-40.44-40.48a10.12 10.12 0 1010.12 10.12 10.12 10.12 0 00-10.12-10.12zm121.42 40.48a10.12 10.12 0 1010.12 10.12 10.12 10.12 0 00-10.12-10.12zm-40.49-40.49a10.12 10.12 0 1010.12 10.12 10.12 10.12 0 00-10.12-10.11zM2552.4 2904a10.12 10.12 0 1010.12 10.12 10.12 10.12 0 00-10.12-10.12zm-40.49-40.49a10.12 10.12 0 1010.12 10.12 10.12 10.12 0 00-10.12-10.11zm121.47 40.49a10.12 10.12 0 1010.12 10.12 10.12 10.12 0 00-10.12-10.12zm-40.49-40.49a10.12 10.12 0 1010.12 10.12 10.12 10.12 0 00-10.12-10.11zm121.47 40.49a10.12 10.12 0 1010.13 10.12 10.12 10.12 0 00-10.13-10.12zm-40.49-40.49a10.12 10.12 0 1010.12 10.12 10.12 10.12 0 00-10.12-10.11zm121.47 40.49a10.12 10.12 0 1010.13 10.12 10.12 10.12 0 00-10.13-10.12zm-40.49-40.49a10.12 10.12 0 1010.13 10.12 10.12 10.12 0 00-10.13-10.11zm121.47 40.49a10.12 10.12 0 1010.13 10.12 10.12 10.12 0 00-10.13-10.12zm-40.49-40.49a10.12 10.12 0 1010.13 10.12 10.12 10.12 0 00-10.13-10.11zm121.48 40.49a10.12 10.12 0 1010.12 10.12 10.12 10.12 0 00-10.12-10.12zm-40.5-40.49a10.12 10.12 0 1010.13 10.12 10.12 10.12 0 00-10.13-10.11zm121.48 40.49a10.12 10.12 0 1010.12 10.12 10.13 10.13 0 00-10.12-10.12zm-40.49-40.49a10.12 10.12 0 1010.12 10.12 10.12 10.12 0 00-10.12-10.11zm121.47 40.49a10.12 10.12 0 1010.12 10.12 10.13 10.13 0 00-10.12-10.12zm-40.49-40.49a10.12 10.12 0 1010.12 10.12 10.13 10.13 0 00-10.12-10.11zm121.47 40.49a10.12 10.12 0 1010.12 10.12 10.12 10.12 0 00-10.12-10.12zm-40.49-40.49a10.12 10.12 0 1010.12 10.12 10.12 10.12 0 00-10.12-10.11zm121.47 40.49a10.12 10.12 0 1010.12 10.12 10.12 10.12 0 00-10.12-10.12zm-40.49-40.49a10.12 10.12 0 1010.12 10.12 10.12 10.12 0 00-10.12-10.11zm121.47 40.49a10.12 10.12 0 1010.12 10.12 10.12 10.12 0 00-10.12-10.12zm-40.49-40.49a10.12 10.12 0 1010.12 10.12 10.12 10.12 0 00-10.12-10.11zm121.47 40.49a10.12 10.12 0 1010.12 10.12 10.12 10.12 0 00-10.12-10.12zm-40.49-40.49a10.12 10.12 0 1010.12 10.12 10.12 10.12 0 00-10.12-10.11zm121.47 40.49a10.12 10.12 0 1010.12 10.12 10.12 10.12 0 00-10.12-10.12zm-40.49-40.49a10.12 10.12 0 1010.12 10.12 10.12 10.12 0 00-10.12-10.11zm81 0a10.12 10.12 0 1010.13 10.12 10.12 10.12 0 00-10.15-10.11zM2066.51 2985a10.12 10.12 0 1010.13 10.12 10.12 10.12 0 00-10.13-10.12zm-40.51-40.5a10.12 10.12 0 1010.13 10.12 10.12 10.12 0 00-10.13-10.12zm121.5 40.5a10.12 10.12 0 1010.12 10.12 10.12 10.12 0 00-10.12-10.12zm-40.5-40.5a10.12 10.12 0 1010.12 10.12 10.12 10.12 0 00-10.12-10.12zm121.48 40.5a10.12 10.12 0 1010.12 10.12 10.13 10.13 0 00-10.12-10.12zm-40.48-40.5a10.12 10.12 0 1010.12 10.12 10.13 10.13 0 00-10.12-10.12zm121.46 40.5a10.12 10.12 0 1010.12 10.12 10.13 10.13 0 00-10.12-10.12zm-40.46-40.5a10.12 10.12 0 1010.12 10.12 10.13 10.13 0 00-10.12-10.12zm121.44 40.5a10.12 10.12 0 1010.12 10.12 10.12 10.12 0 00-10.12-10.12zm-40.44-40.5a10.12 10.12 0 1010.12 10.12 10.12 10.12 0 00-10.12-10.12zm121.42 40.5a10.12 10.12 0 1010.12 10.12 10.12 10.12 0 00-10.12-10.12zm-40.49-40.49a10.12 10.12 0 1010.12 10.12 10.12 10.12 0 00-10.12-10.13zM2552.4 2985a10.12 10.12 0 1010.12 10.12 10.12 10.12 0 00-10.12-10.12zm-40.49-40.49a10.12 10.12 0 1010.12 10.12 10.12 10.12 0 00-10.12-10.13zm121.47 40.49a10.12 10.12 0 1010.12 10.12 10.12 10.12 0 00-10.12-10.12zm-40.49-40.49a10.12 10.12 0 1010.12 10.12 10.12 10.12 0 00-10.12-10.13zm121.47 40.49a10.12 10.12 0 1010.13 10.12 10.12 10.12 0 00-10.13-10.12zm-40.49-40.49a10.12 10.12 0 1010.12 10.12 10.12 10.12 0 00-10.12-10.13zm121.47 40.49a10.12 10.12 0 1010.13 10.12 10.12 10.12 0 00-10.13-10.12zm-40.49-40.49a10.12 10.12 0 1010.13 10.12 10.12 10.12 0 00-10.13-10.13zm121.47 40.49a10.12 10.12 0 1010.13 10.12 10.12 10.12 0 00-10.13-10.12zm-40.49-40.49a10.12 10.12 0 1010.13 10.12 10.12 10.12 0 00-10.13-10.13zm121.48 40.49a10.12 10.12 0 1010.12 10.12 10.12 10.12 0 00-10.12-10.12zm-40.5-40.49a10.12 10.12 0 1010.13 10.12 10.12 10.12 0 00-10.13-10.13zm121.48 40.49a10.12 10.12 0 1010.12 10.12 10.13 10.13 0 00-10.12-10.12zm-40.49-40.49a10.12 10.12 0 1010.12 10.12 10.12 10.12 0 00-10.12-10.13zm121.47 40.49a10.12 10.12 0 1010.12 10.12 10.13 10.13 0 00-10.12-10.12zm-40.49-40.49a10.12 10.12 0 1010.12 10.12 10.13 10.13 0 00-10.12-10.13zm121.47 40.49a10.12 10.12 0 1010.12 10.12 10.12 10.12 0 00-10.12-10.12zm-40.49-40.49a10.12 10.12 0 1010.12 10.12 10.12 10.12 0 00-10.12-10.13zm121.47 40.49a10.12 10.12 0 1010.12 10.12 10.12 10.12 0 00-10.12-10.12zm-40.49-40.49a10.12 10.12 0 1010.12 10.12 10.12 10.12 0 00-10.12-10.13zm121.47 40.49a10.12 10.12 0 1010.12 10.12 10.12 10.12 0 00-10.12-10.12zm-40.49-40.49a10.12 10.12 0 1010.12 10.12 10.12 10.12 0 00-10.12-10.13zm121.47 40.49a10.12 10.12 0 1010.12 10.12 10.12 10.12 0 00-10.12-10.12zm-40.49-40.49a10.12 10.12 0 1010.12 10.12 10.12 10.12 0 00-10.12-10.13zm121.47 40.49a10.12 10.12 0 1010.12 10.12 10.12 10.12 0 00-10.12-10.12zm-40.49-40.49a10.12 10.12 0 1010.12 10.12 10.12 10.12 0 00-10.12-10.13zm81 0a10.12 10.12 0 1010.13 10.12 10.12 10.12 0 00-10.15-10.13zM2066.51 3066a10.12 10.12 0 1010.13 10.12 10.12 10.12 0 00-10.13-10.12zm-40.51-40.52a10.12 10.12 0 1010.13 10.12 10.12 10.12 0 00-10.13-10.12zm121.5 40.52a10.12 10.12 0 1010.12 10.12 10.12 10.12 0 00-10.12-10.12zm-40.5-40.52a10.12 10.12 0 1010.12 10.12 10.12 10.12 0 00-10.12-10.12zm121.48 40.52a10.12 10.12 0 1010.12 10.12 10.13 10.13 0 00-10.12-10.12zm-40.48-40.52a10.12 10.12 0 1010.12 10.12 10.13 10.13 0 00-10.12-10.12zm121.46 40.52a10.12 10.12 0 1010.12 10.12 10.13 10.13 0 00-10.12-10.12zm-40.46-40.52a10.12 10.12 0 1010.12 10.12 10.13 10.13 0 00-10.12-10.12zm121.44 40.52a10.12 10.12 0 1010.12 10.12 10.12 10.12 0 00-10.12-10.12zm-40.44-40.52a10.12 10.12 0 1010.12 10.12 10.12 10.12 0 00-10.12-10.12zm121.42 40.52a10.12 10.12 0 1010.12 10.12 10.12 10.12 0 00-10.12-10.12zm-40.49-40.49a10.12 10.12 0 1010.12 10.12 10.12 10.12 0 00-10.12-10.15zM2552.4 3066a10.12 10.12 0 1010.12 10.12 10.12 10.12 0 00-10.12-10.12zm-40.49-40.49a10.12 10.12 0 1010.09 10.09 10.12 10.12 0 00-10.09-10.12zm121.47 40.49a10.12 10.12 0 1010.12 10.12 10.12 10.12 0 00-10.12-10.12zm-40.49-40.49a10.12 10.12 0 1010.11 10.09 10.12 10.12 0 00-10.11-10.12zm121.47 40.49a10.12 10.12 0 1010.13 10.12 10.12 10.12 0 00-10.13-10.12zm-40.49-40.49a10.12 10.12 0 1010.13 10.09 10.12 10.12 0 00-10.13-10.12zm121.47 40.49a10.12 10.12 0 1010.13 10.12 10.12 10.12 0 00-10.13-10.12zm-40.49-40.49a10.12 10.12 0 1010.15 10.09 10.12 10.12 0 00-10.15-10.12zm121.47 40.49a10.12 10.12 0 1010.13 10.12 10.12 10.12 0 00-10.13-10.12zm-40.49-40.49a10.12 10.12 0 1010.17 10.09 10.12 10.12 0 00-10.17-10.12zm121.48 40.49a10.12 10.12 0 1010.12 10.12 10.12 10.12 0 00-10.12-10.12zm-40.5-40.49a10.12 10.12 0 1010.13 10.12 10.12 10.12 0 00-10.13-10.15zm121.48 40.49a10.12 10.12 0 1010.12 10.12 10.13 10.13 0 00-10.12-10.12zm-40.49-40.49a10.12 10.12 0 1010.12 10.12 10.12 10.12 0 00-10.12-10.15zm121.47 40.49a10.12 10.12 0 1010.12 10.12 10.13 10.13 0 00-10.12-10.12zm-40.49-40.49a10.12 10.12 0 1010.12 10.12 10.13 10.13 0 00-10.12-10.15zm121.47 40.49a10.12 10.12 0 1010.12 10.12 10.12 10.12 0 00-10.12-10.12zm-40.49-40.49a10.12 10.12 0 1010.12 10.12 10.12 10.12 0 00-10.12-10.15zm121.47 40.49a10.12 10.12 0 1010.12 10.12 10.12 10.12 0 00-10.12-10.12zm-40.49-40.49a10.12 10.12 0 1010.12 10.12 10.12 10.12 0 00-10.12-10.15zm121.47 40.49a10.12 10.12 0 1010.12 10.12 10.12 10.12 0 00-10.12-10.12zm-40.49-40.49a10.12 10.12 0 1010.12 10.12 10.12 10.12 0 00-10.12-10.15zm121.47 40.49a10.12 10.12 0 1010.12 10.12 10.12 10.12 0 00-10.12-10.12zm-40.49-40.49a10.12 10.12 0 1010.12 10.12 10.12 10.12 0 00-10.12-10.15zm121.47 40.49a10.12 10.12 0 1010.12 10.12 10.12 10.12 0 00-10.12-10.12zm-40.49-40.49a10.12 10.12 0 1010.12 10.12 10.12 10.12 0 00-10.12-10.15zm81 0a10.12 10.12 0 1010.13 10.12 10.12 10.12 0 00-10.15-10.15zM2066.51 3147a10.12 10.12 0 1010.13 10.12 10.12 10.12 0 00-10.13-10.12zm-40.51-40.54a10.12 10.12 0 1010.13 10.12 10.12 10.12 0 00-10.13-10.12zm121.5 40.54a10.12 10.12 0 1010.12 10.12 10.12 10.12 0 00-10.12-10.12zm-40.5-40.54a10.12 10.12 0 1010.12 10.12 10.12 10.12 0 00-10.12-10.12zm121.48 40.54a10.12 10.12 0 1010.12 10.12 10.13 10.13 0 00-10.12-10.12zm-40.48-40.54a10.12 10.12 0 1010.12 10.12 10.13 10.13 0 00-10.12-10.12zm121.46 40.54a10.12 10.12 0 1010.12 10.12 10.13 10.13 0 00-10.12-10.12zm-40.46-40.54a10.12 10.12 0 1010.12 10.12 10.13 10.13 0 00-10.12-10.12zm121.44 40.54a10.12 10.12 0 1010.12 10.12 10.12 10.12 0 00-10.12-10.12zm-40.44-40.54a10.12 10.12 0 1010.12 10.12 10.12 10.12 0 00-10.12-10.12zm121.42 40.54a10.12 10.12 0 1010.12 10.12 10.12 10.12 0 00-10.12-10.12zm-40.49-40.49a10.12 10.12 0 1010.12 10.12 10.12 10.12 0 00-10.12-10.17zM2552.4 3147a10.12 10.12 0 1010.12 10.12 10.12 10.12 0 00-10.12-10.12zm-40.49-40.49a10.12 10.12 0 1010.12 10.12 10.12 10.12 0 00-10.12-10.17zm121.47 40.49a10.12 10.12 0 1010.12 10.12 10.12 10.12 0 00-10.12-10.12zm-40.49-40.49a10.12 10.12 0 1010.12 10.12 10.12 10.12 0 00-10.12-10.17zm121.47 40.49a10.12 10.12 0 1010.13 10.12 10.12 10.12 0 00-10.13-10.12zm-40.49-40.49a10.12 10.12 0 1010.12 10.12 10.12 10.12 0 00-10.12-10.17zm121.47 40.49a10.12 10.12 0 1010.13 10.12 10.12 10.12 0 00-10.13-10.12zm-40.49-40.49a10.12 10.12 0 1010.13 10.12 10.12 10.12 0 00-10.13-10.17zm121.47 40.49a10.12 10.12 0 1010.13 10.12 10.12 10.12 0 00-10.13-10.12zm-40.49-40.49a10.12 10.12 0 1010.13 10.12 10.12 10.12 0 00-10.13-10.17zm121.48 40.49a10.12 10.12 0 1010.12 10.12 10.12 10.12 0 00-10.12-10.12zm-40.5-40.49a10.12 10.12 0 1010.13 10.12 10.12 10.12 0 00-10.13-10.17zm121.48 40.49a10.12 10.12 0 1010.12 10.12 10.13 10.13 0 00-10.12-10.12zm-40.49-40.49a10.12 10.12 0 1010.12 10.12 10.12 10.12 0 00-10.12-10.17zm121.47 40.49a10.12 10.12 0 1010.12 10.12 10.13 10.13 0 00-10.12-10.12zm-40.49-40.49a10.12 10.12 0 1010.12 10.12 10.13 10.13 0 00-10.12-10.17zm121.47 40.49a10.12 10.12 0 1010.12 10.12 10.12 10.12 0 00-10.12-10.12zm-40.49-40.49a10.12 10.12 0 1010.12 10.12 10.12 10.12 0 00-10.12-10.17zm121.47 40.49a10.12 10.12 0 1010.12 10.12 10.12 10.12 0 00-10.12-10.12zm-40.49-40.49a10.12 10.12 0 1010.12 10.12 10.12 10.12 0 00-10.12-10.17zm121.47 40.49a10.12 10.12 0 1010.12 10.12 10.12 10.12 0 00-10.12-10.12zm-40.49-40.49a10.12 10.12 0 1010.12 10.12 10.12 10.12 0 00-10.12-10.17zm121.47 40.49a10.12 10.12 0 1010.12 10.12 10.12 10.12 0 00-10.12-10.12zm-40.49-40.49a10.12 10.12 0 1010.12 10.12 10.12 10.12 0 00-10.12-10.17zm121.47 40.49a10.12 10.12 0 1010.12 10.12 10.12 10.12 0 00-10.12-10.12zm-40.49-40.49a10.12 10.12 0 1010.12 10.12 10.12 10.12 0 00-10.12-10.17zm81 0a10.12 10.12 0 1010.13 10.12 10.12 10.12 0 00-10.15-10.17zm-1498.17 121.42a10.13 10.13 0 1010.13 10.12 10.12 10.12 0 00-10.13-10.12zm-40.51-40.49a10.12 10.12 0 1010.13 10.12 10.12 10.12 0 00-10.13-10.12zm121.48 40.49a10.13 10.13 0 1010.12 10.12 10.12 10.12 0 00-10.1-10.12zm-40.48-40.49a10.12 10.12 0 1010.12 10.12 10.12 10.12 0 00-10.12-10.12zm121.47 40.49a10.13 10.13 0 1010.12 10.12 10.13 10.13 0 00-10.11-10.12zm-40.47-40.49a10.12 10.12 0 1010.12 10.12 10.13 10.13 0 00-10.12-10.12zm121.47 40.49a10.13 10.13 0 1010.12 10.12 10.13 10.13 0 00-10.13-10.12zm-40.47-40.49a10.12 10.12 0 1010.12 10.12 10.13 10.13 0 00-10.12-10.12zm121.47 40.49a10.13 10.13 0 1010.12 10.12 10.12 10.12 0 00-10.15-10.12zm-40.47-40.49a10.12 10.12 0 1010.12 10.12 10.12 10.12 0 00-10.12-10.12zm121.47 40.49a10.13 10.13 0 1010.12 10.12 10.12 10.12 0 00-10.17-10.12zm-40.49-40.49a10.12 10.12 0 1010.12 10.12 10.12 10.12 0 00-10.17-10.12zm121.47 40.49a10.13 10.13 0 1010.12 10.12 10.12 10.12 0 00-10.17-10.12zm-40.49-40.49a10.12 10.12 0 1010.12 10.12 10.12 10.12 0 00-10.17-10.12zm121.47 40.49a10.13 10.13 0 1010.12 10.12 10.12 10.12 0 00-10.17-10.12zm-40.49-40.49a10.12 10.12 0 1010.12 10.12 10.12 10.12 0 00-10.17-10.12zm121.47 40.49a10.13 10.13 0 1010.13 10.12 10.12 10.12 0 00-10.18-10.12zm-40.49-40.49a10.12 10.12 0 1010.12 10.12 10.12 10.12 0 00-10.17-10.12zm121.47 40.49a10.13 10.13 0 1010.13 10.12 10.12 10.12 0 00-10.18-10.12zm-40.49-40.49a10.12 10.12 0 1010.13 10.12 10.12 10.12 0 00-10.18-10.12zm121.47 40.49a10.13 10.13 0 1010.13 10.12 10.12 10.12 0 00-10.18-10.12zm-40.49-40.49a10.12 10.12 0 1010.13 10.12 10.12 10.12 0 00-10.18-10.12zm121.48 40.49a10.13 10.13 0 1010.12 10.12 10.12 10.12 0 00-10.17-10.12zm-40.5-40.49a10.12 10.12 0 1010.13 10.12 10.12 10.12 0 00-10.18-10.12zm121.48 40.49a10.13 10.13 0 1010.12 10.12 10.13 10.13 0 00-10.17-10.12zm-40.49-40.49a10.12 10.12 0 1010.12 10.12 10.12 10.12 0 00-10.17-10.12zm121.47 40.49a10.13 10.13 0 1010.12 10.12 10.13 10.13 0 00-10.17-10.12zm-40.49-40.49a10.12 10.12 0 1010.12 10.12 10.13 10.13 0 00-10.17-10.12zm121.47 40.49a10.13 10.13 0 1010.12 10.12 10.12 10.12 0 00-10.17-10.12zm-40.49-40.49a10.12 10.12 0 1010.12 10.12 10.12 10.12 0 00-10.17-10.12zm121.47 40.49a10.13 10.13 0 1010.12 10.12 10.12 10.12 0 00-10.17-10.12zm-40.49-40.49a10.12 10.12 0 1010.12 10.12 10.12 10.12 0 00-10.17-10.12zm121.47 40.49a10.13 10.13 0 1010.12 10.12 10.12 10.12 0 00-10.17-10.12zm-40.49-40.49a10.12 10.12 0 1010.12 10.12 10.12 10.12 0 00-10.17-10.12zm121.47 40.49a10.13 10.13 0 1010.12 10.12 10.12 10.12 0 00-10.17-10.12zm-40.49-40.49a10.12 10.12 0 1010.12 10.12 10.12 10.12 0 00-10.17-10.12zm121.47 40.49a10.13 10.13 0 1010.12 10.12 10.12 10.12 0 00-10.17-10.12zm-40.49-40.49a10.12 10.12 0 1010.12 10.12 10.12 10.12 0 00-10.17-10.12zm81 0a10.12 10.12 0 1010.13 10.12 10.12 10.12 0 00-10.2-10.12zm-1498.22 121.47a10.13 10.13 0 1010.13 10.12 10.12 10.12 0 00-10.13-10.12zm-40.51-40.49a10.13 10.13 0 1010.13 10.12 10.12 10.12 0 00-10.13-10.12zm121.48 40.49a10.13 10.13 0 1010.12 10.12 10.12 10.12 0 00-10.1-10.12zm-40.48-40.49a10.13 10.13 0 1010.12 10.12 10.12 10.12 0 00-10.12-10.12zm121.47 40.49a10.13 10.13 0 1010.13 10.09 10.13 10.13 0 00-10.12-10.09zm-40.47-40.49a10.13 10.13 0 1010.12 10.12 10.13 10.13 0 00-10.12-10.12zm121.47 40.49a10.13 10.13 0 1010.12 10.12 10.13 10.13 0 00-10.13-10.12zm-40.47-40.49a10.13 10.13 0 1010.12 10.12 10.13 10.13 0 00-10.12-10.12zm121.47 40.49a10.13 10.13 0 1010.12 10.12 10.12 10.12 0 00-10.15-10.12zm-40.47-40.49a10.13 10.13 0 1010.12 10.12 10.12 10.12 0 00-10.12-10.12zm121.47 40.49a10.13 10.13 0 1010.12 10.12 10.12 10.12 0 00-10.17-10.12zm-40.49-40.49a10.13 10.13 0 1010.12 10.12 10.12 10.12 0 00-10.17-10.12zm121.47 40.49a10.13 10.13 0 1010.12 10.12 10.12 10.12 0 00-10.17-10.12zm-40.49-40.49a10.13 10.13 0 1010.12 10.12 10.12 10.12 0 00-10.17-10.12zm121.47 40.49a10.13 10.13 0 1010.07 10.09 10.12 10.12 0 00-10.12-10.09zm-40.49-40.49a10.13 10.13 0 1010.12 10.12 10.12 10.12 0 00-10.17-10.12zm121.47 40.49a10.13 10.13 0 1010.13 10.12 10.12 10.12 0 00-10.18-10.12zm-40.49-40.49a10.13 10.13 0 1010.12 10.12 10.12 10.12 0 00-10.17-10.12zm121.47 40.49a10.13 10.13 0 1010.13 10.12 10.12 10.12 0 00-10.18-10.12zm-40.49-40.49a10.13 10.13 0 1010.13 10.12 10.12 10.12 0 00-10.18-10.12zm121.47 40.49a10.13 10.13 0 1010.13 10.12 10.12 10.12 0 00-10.18-10.12zm-40.49-40.49a10.13 10.13 0 1010.13 10.12 10.12 10.12 0 00-10.18-10.12zm121.48 40.49a10.13 10.13 0 1010.12 10.12 10.12 10.12 0 00-10.17-10.12zm-40.5-40.49a10.13 10.13 0 1010.13 10.12 10.12 10.12 0 00-10.18-10.12zm121.48 40.49a10.13 10.13 0 1010.12 10.12 10.13 10.13 0 00-10.17-10.12zm-40.49-40.49a10.13 10.13 0 1010.12 10.12 10.12 10.12 0 00-10.17-10.12zm121.47 40.49a10.13 10.13 0 1010.12 10.12 10.13 10.13 0 00-10.17-10.12zm-40.49-40.49a10.13 10.13 0 1010.12 10.12 10.13 10.13 0 00-10.17-10.12zm121.47 40.49a10.13 10.13 0 1010.12 10.12 10.12 10.12 0 00-10.17-10.12zm-40.49-40.49a10.13 10.13 0 1010.12 10.12 10.12 10.12 0 00-10.17-10.12zm121.47 40.49a10.13 10.13 0 1010.12 10.12 10.12 10.12 0 00-10.17-10.12zm-40.49-40.49a10.13 10.13 0 1010.12 10.12 10.12 10.12 0 00-10.17-10.12zm121.47 40.49a10.13 10.13 0 1010.12 10.12 10.12 10.12 0 00-10.17-10.12zm-40.49-40.49a10.13 10.13 0 1010.12 10.12 10.12 10.12 0 00-10.17-10.12zm121.47 40.49a10.13 10.13 0 1010.12 10.12 10.12 10.12 0 00-10.17-10.12zm-40.49-40.49a10.13 10.13 0 1010.12 10.12 10.12 10.12 0 00-10.17-10.12zm121.47 40.49a10.13 10.13 0 1010.12 10.12 10.12 10.12 0 00-10.17-10.12zm-40.49-40.49a10.13 10.13 0 1010.12 10.12 10.12 10.12 0 00-10.17-10.12zm81 0a10.13 10.13 0 1010.13 10.12 10.12 10.12 0 00-10.2-10.12zm-1498.22 121.47a10.13 10.13 0 1010.13 10.12 10.12 10.12 0 00-10.13-10.12zM2026 3349.4a10.13 10.13 0 1010.13 10.12 10.12 10.12 0 00-10.13-10.12zm121.48 40.49a10.13 10.13 0 1010.12 10.12 10.12 10.12 0 00-10.1-10.12zM2107 3349.4a10.13 10.13 0 1010.12 10.12 10.12 10.12 0 00-10.12-10.12zm121.47 40.49a10.13 10.13 0 1010.13 10.11 10.13 10.13 0 00-10.12-10.11zM2188 3349.4a10.13 10.13 0 1010.12 10.12 10.13 10.13 0 00-10.12-10.12zm121.47 40.49a10.13 10.13 0 1010.12 10.12 10.13 10.13 0 00-10.13-10.12zM2269 3349.4a10.13 10.13 0 1010.12 10.12 10.13 10.13 0 00-10.12-10.12zm121.47 40.49a10.13 10.13 0 1010.12 10.12 10.12 10.12 0 00-10.15-10.12zM2350 3349.4a10.13 10.13 0 1010.12 10.12 10.12 10.12 0 00-10.12-10.12zm121.47 40.49a10.13 10.13 0 1010.12 10.12 10.12 10.12 0 00-10.17-10.12zm-40.49-40.49a10.13 10.13 0 1010.12 10.12 10.12 10.12 0 00-10.17-10.12zm121.47 40.49a10.13 10.13 0 1010.12 10.12 10.12 10.12 0 00-10.17-10.12zm-40.49-40.49a10.13 10.13 0 1010.12 10.12 10.12 10.12 0 00-10.17-10.12zm121.47 40.49a10.13 10.13 0 1010.07 10.11 10.12 10.12 0 00-10.12-10.11zm-40.49-40.49a10.13 10.13 0 1010.12 10.12 10.12 10.12 0 00-10.17-10.12zm121.47 40.49a10.13 10.13 0 1010.13 10.12 10.12 10.12 0 00-10.18-10.12zm-40.49-40.49a10.13 10.13 0 1010.12 10.12 10.12 10.12 0 00-10.17-10.12zm121.47 40.49a10.13 10.13 0 1010.13 10.12 10.12 10.12 0 00-10.18-10.12zm-40.49-40.49a10.13 10.13 0 1010.13 10.12 10.12 10.12 0 00-10.18-10.12zm121.47 40.49a10.13 10.13 0 1010.13 10.12 10.12 10.12 0 00-10.18-10.12zm-40.49-40.49a10.13 10.13 0 1010.13 10.12 10.12 10.12 0 00-10.18-10.12zm121.48 40.49a10.13 10.13 0 1010.12 10.12 10.12 10.12 0 00-10.17-10.12zm-40.5-40.49a10.13 10.13 0 1010.13 10.12 10.12 10.12 0 00-10.18-10.12zm121.48 40.49a10.13 10.13 0 1010.12 10.12 10.13 10.13 0 00-10.17-10.12zm-40.49-40.49a10.13 10.13 0 1010.12 10.12 10.12 10.12 0 00-10.17-10.12zm121.47 40.49a10.13 10.13 0 1010.12 10.12 10.13 10.13 0 00-10.17-10.12zm-40.49-40.49a10.13 10.13 0 1010.12 10.12 10.13 10.13 0 00-10.17-10.12zm121.47 40.49a10.13 10.13 0 1010.12 10.12 10.12 10.12 0 00-10.17-10.12zm-40.49-40.49a10.13 10.13 0 1010.12 10.12 10.12 10.12 0 00-10.17-10.12zm121.47 40.49a10.13 10.13 0 1010.12 10.12 10.12 10.12 0 00-10.17-10.12zm-40.49-40.49a10.13 10.13 0 1010.12 10.12 10.12 10.12 0 00-10.17-10.12zm121.47 40.49a10.13 10.13 0 1010.12 10.12 10.12 10.12 0 00-10.17-10.12zm-40.49-40.49a10.13 10.13 0 1010.12 10.12 10.12 10.12 0 00-10.17-10.12zm121.47 40.49a10.13 10.13 0 1010.12 10.12 10.12 10.12 0 00-10.17-10.12zm-40.49-40.49a10.13 10.13 0 1010.12 10.12 10.12 10.12 0 00-10.17-10.12zm121.47 40.49a10.13 10.13 0 1010.12 10.12 10.12 10.12 0 00-10.17-10.12zm-40.49-40.49a10.13 10.13 0 1010.12 10.12 10.12 10.12 0 00-10.17-10.12zm81 0a10.13 10.13 0 1010.13 10.12 10.12 10.12 0 00-10.2-10.12zm-1538.64 81a10.13 10.13 0 1010.13 10.12 10.12 10.12 0 00-10.22-10.14zm81 0a10.13 10.13 0 1010.12 10.12 10.12 10.12 0 00-10.21-10.14zm81 0a10.13 10.13 0 1010.12 10.12 10.13 10.13 0 00-10.21-10.14zm81 0a10.13 10.13 0 1010.12 10.12 10.13 10.13 0 00-10.21-10.14zm81 0a10.13 10.13 0 1010.12 10.12 10.12 10.12 0 00-10.21-10.14zm81 0a10.13 10.13 0 1010.12 10.12 10.12 10.12 0 00-10.28-10.14zm81 0a10.13 10.13 0 109.91 10.1 10.12 10.12 0 00-10.09-10.12zm81 0a10.13 10.13 0 109.91 10.1 10.12 10.12 0 00-10.11-10.12zm81 0a10.13 10.13 0 109.91 10.1 10.12 10.12 0 00-10.13-10.12zm81 0a10.13 10.13 0 109.91 10.1 10.12 10.12 0 00-10.15-10.12zm81 0a10.13 10.13 0 109.91 10.1 10.12 10.12 0 00-10.17-10.12zm81 0a10.13 10.13 0 1010.13 10.12 10.12 10.12 0 00-10.41-10.14zm81 0a10.13 10.13 0 1010.12 10.12 10.12 10.12 0 00-10.41-10.14zm81 0a10.13 10.13 0 1010.12 10.12 10.13 10.13 0 00-10.43-10.14zm81 0a10.13 10.13 0 1010.12 10.12 10.12 10.12 0 00-10.45-10.14zm81 0a10.13 10.13 0 1010.12 10.12 10.12 10.12 0 00-10.47-10.14zm81 0a10.13 10.13 0 1010.12 10.12 10.12 10.12 0 00-10.49-10.14zm81 0a10.13 10.13 0 1010.12 10.12 10.12 10.12 0 00-10.51-10.14zm81 0a10.13 10.13 0 1010.12 10.12 10.12 10.12 0 00-10.53-10.14zm81 0a10.13 10.13 0 1010.13 10.12 10.12 10.12 0 00-10.56-10.14z"/>
  </g>
  <g id="Amazon_s_Choice" data-name="Amazon's Choice">
    <path fill="#00abba" d="M2052.72 1201.57q-95.58 85.25-39.9 200.59t-65.24 157.52q-120.93 42.18-113.63 170t-120.56 120.62q-127.86-7.32-170.05 113.62t-157.53 65.25q-115.33-55.7-200.58 39.9t-170.5 0q-85.26-95.6-200.59-39.9t-157.52-65.25q-42.18-120.95-170-113.62T366 1729.73q7.31-127.87-113.63-170t-65.24-157.52q55.67-115.34-39.9-200.59t0-170.49q95.58-85.26 39.9-200.6T252.38 673q120.93-42.18 113.63-170t120.56-120.65q127.86 7.31 170.05-113.62t157.52-65.25q115.35 55.68 200.59-39.9t170.5 0q85.24 95.58 200.58 39.9t157.53 65.25q42.18 120.93 170.05 113.62T1834 502.91q-7.35 127.88 113.58 170.09t65.24 157.52q-55.68 115.34 39.9 200.6t0 170.45z"/>
    <path d="M1993.84 1142.69q-95.58 85.24-39.9 200.59t-65.25 157.52q-120.93 42.18-113.62 170t-120.56 120.56q-127.87-7.31-170.06 113.63t-157.52 65.24q-115.34-55.68-200.58 39.9t-170.5 0q-85.26-95.58-200.59-39.9T597.74 1905q-42.18-120.94-170-113.63t-120.61-120.52q7.29-127.87-113.63-170t-65.24-157.52q55.67-115.35-39.91-200.59t0-170.5q95.58-85.25 39.91-200.59t65.24-157.57Q314.43 571.9 307.13 444t120.56-120.53q127.86 7.3 170.05-113.62t157.52-65.25q115.35 55.68 200.59-39.9t170.5 0q85.25 95.58 200.58 39.9t157.52 65.25q42.19 120.93 170.06 113.62T1775.07 444q-7.32 127.88 113.62 170.05t65.25 157.52q-55.68 115.33 39.9 200.59t0 170.53z" class="cls-6"/>
    <path fill="#c8e8e5" d="M1890 1133.4q-85.17 76-35.55 178.74t-58.14 140.36q-107.73 37.59-101.21 151.5t-107.43 107.43q-113.93-6.51-151.52 101.24t-140.36 58.14q-102.76-49.62-178.73 35.55t-151.92 0q-76-85.17-178.74-35.55T646 1812.69q-37.59-107.76-151.52-101.24T387.09 1604q6.53-113.93-101.24-151.52t-58.14-140.36q49.62-102.77-35.56-178.74t0-151.92q85.17-76 35.56-178.73t58.14-140.36Q393.6 624.8 387.09 510.86t107.43-107.42Q608.46 409.95 646 302.2t140.4-58.14q102.76 49.62 178.74-35.55t151.92 0q76 85.17 178.73 35.55t140.36 58.14q37.59 107.8 151.52 101.24t107.43 107.42q-6.51 113.94 101.24 151.53t58.14 140.36q-49.62 102.77 35.52 178.73t0 151.92z"/>
    <path d="M470.22 1430.32c-54.42 9.6-100.86-23.88-100.86-83.19s46.16-108.83 98-118c41.88-7.38 67.53 6 83.77 27.48l-39 33.79c-7.41-10.27-19.38-20-43.88-15.7-28.49 5-45.88 32.1-45.88 63.06s18 52.1 47.59 46.87c25.07-4.42 37.33-18.15 45.59-35.23l39.89 19c-19.11 36.09-45.89 54.99-85.22 61.92zM751.46 1181.38l51.86-9.15V1369l-51.86 9.15v-77L684.21 1313v77l-51.86 9.15v-196.77l51.86-9.15v75.52l67.25-11.86zM884.52 1256.29c0-59.32 48.15-109.18 104-119s104 23 104 82.35-48.16 109.47-104 119.32-104-23.36-104-82.67zm155-27.33c0-31-18.52-51.71-51-46s-51 33-51 64 18.52 52 51 46.27 51.01-33.32 51.01-64.23zM1174.87 1106.72l51.86-9.15v196.75l-51.86 9.15zM1410 1264.62c-54.42 9.6-100.87-23.88-100.87-83.19s46.16-108.83 98-118c41.89-7.38 67.53 6 83.77 27.48l-39 33.79c-7.41-10.27-19.38-20-43.89-15.7-28.49 5-45.87 32.1-45.87 63.06s18 52.1 47.58 46.87c25.08-4.42 37.33-18.15 45.59-35.23l39.9 19c-19.15 36.08-45.94 54.99-85.21 61.92zM1572.08 1036.68l135.91-24V1057l-84 14.82v32.41l70.09-12.36v42l-70.09 12.36V1180l88-15.52v44.27l-139.9 24.67zM315.09 1120.87l14.18-2.5 43.26-126.91-17.26 3v-19.2l78-13.76v19.2l-17.49 3.09 43.22 111.7 14.41-2.54v19.44l-55.3 9.75v-19.2l18-3.16-11.58-31.32-61.46 10.83-11.58 35.41 18.91-3.34v19.2l-55.31 9.75zm103.29-69.57l-24.58-64.55-24.58 73.25zM512.21 1086.12l19.38-3.42 5.44-120-20.33 3.58v-19.44l39.95-7 49.63 90.37 49.64-107.88 39.47-7v19.44l-20.09 3.55 5.2 118.12 19.62-3.46v19.44l-60 10.59v-19.44l19.15-3.38-3.55-97.53-47.74 102-4 .71-47.8-85.17-3.55 98.8 19.14-3.38v19.44l-59.56 10.51zM739.58 1046l14.19-2.5L797 916.61l-17.25 3v-19.2l78-13.76v19.2L840.27 909l43.26 111.65 14.41-2.54v19.44l-55.3 9.75v-19.2l18-3.16L849 993.61l-61.45 10.83-11.55 35.41 18.91-3.34v19.2l-55.31 9.75zm103.29-69.57l-24.58-64.53-24.58 73.22zM940.48 1018.52l92.18-144.42-68.3 12v25.68l-18.91 3.33v-43.87l117.7-20.75V862L971 1006.42l74.93-13.21v-25.68l18.67-3.29v43.92L940.48 1030zM1112.08 920.82c0-46.32 33.09-87.68 79.65-95.89 45.86-8.08 78.47 21.93 78.47 68 0 46.32-33.09 87.68-79.65 95.89-45.85 8.09-78.47-21.92-78.47-68zm136.14-24c0-35.29-23.87-57.48-57-51.64-33.33 5.87-57.2 36.24-57.2 71.77 0 35.28 23.87 57.47 57.2 51.59 33.13-5.83 57-36.2 57-71.72zM1360.72 836.66v99.84l19.86-3.5v19.44l-59.58 10.5V943.5l18.91-3.33v-119l-18.91 3.29V805l37.35-6.59L1442.5 895v-92l-19.85 3.5v-19.4l58.85-10.38v19.44l-18.2 3.21v139l-11.82 2.33zM1520.73 828.12c15.36-14.46 21.51-28 21.75-34.79-7.33-.39-13-5.63-13-13.31 0-8.4 7.32-16.89 16.07-18.43 9-1.59 17 4 17 17.4s-9.22 35.94-36.4 55.86zM1606.53 880.92c0-10.08 5.91-17.61 14.18-19.06 8.51-1.5 14.18 4 14.18 10.7a20.42 20.42 0 01-3.07 10.86c5.43 3.84 15.83 5.61 28.36 3.4 18.91-3.34 31-14.82 31-30.42 0-14.88-14.18-19.34-30.72-22.67-27.89-5.64-48-11.7-48-39.78 0-24.72 19.38-46.62 49.4-51.91 27.18-4.79 48.45 6.34 48.45 23.86 0 9.84-6.15 16.68-13.71 18-9 1.58-14.42-4.18-14.42-11.38a16.33 16.33 0 012.6-8.86c-4.25-3.09-13.47-4.34-23.16-2.64-17.26 3.05-27.66 14.24-27.66 27.44 0 15.12 14 19.14 31.68 23 26.71 5.37 46.8 11.66 46.8 39.51 0 28.8-22.22 49.75-52.71 55.13s-53.2-8.1-53.2-25.18z"/>
    <path d="M671.58 761.91l744-145.3M673.58 1532.6l744-145.29" class="cls-6"/>
    <path fill="#fff" d="M1567.24 232.06h293.08v293.08h-293.08z"/>
    <path d="M1685.16 496.28L1593 406.57l35-37.94 53 51.71 126.28-153.61 38.9 33.76zm29.52-380.49c-145.19 0-263.32 118.14-263.32 263.32s118.13 263.32 263.32 263.32S1978 524.29 1978 379.11s-118.13-263.32-263.31-263.32"/>
  </g>
</svg>
