<svg id="Layer_1" data-name="Layer 1" xmlns="http://www.w3.org/2000/svg" viewBox="0 0 2622.52 2622.52"><defs><style>.cls-1{fill:#327ae7;stroke:#1c1c9b;stroke-miterlimit:10;}.cls-2,.cls-3{fill:#fff;}.cls-3{opacity:0.8;}.cls-4{fill:#1c1c9b;}</style></defs><title>BP-tested-badge</title><g id="product_testing" data-name="product testing"><circle class="cls-1" cx="1311.26" cy="1311.26" r="1310.76"/><g id="logo"><rect id="_Rectangle_" data-name="&lt;Rectangle&gt;" class="cls-2" x="851.09" y="724.89" width="297.17" height="588.23"/><rect id="_Rectangle_2" data-name="&lt;Rectangle&gt;" class="cls-2" x="289.67" y="724.89" width="297.17" height="588.23"/><rect id="_Rectangle_3" data-name="&lt;Rectangle&gt;" class="cls-2" x="1969.91" y="723.03" width="297.17" height="588.23"/><rect id="_Rectangle_4" data-name="&lt;Rectangle&gt;" class="cls-3" x="850.72" y="724.89" width="490.82" height="171.02"/><rect id="_Rectangle_5" data-name="&lt;Rectangle&gt;" class="cls-3" x="851.09" y="1141.62" width="490.82" height="171.02"/><rect id="_Rectangle_6" data-name="&lt;Rectangle&gt;" class="cls-3" x="1867.03" y="723.03" width="502.92" height="171.02"/><rect id="_Rectangle_7" data-name="&lt;Rectangle&gt;" class="cls-3" x="851.09" y="933.25" width="490.82" height="171.02"/><path id="_Path_" data-name="&lt;Path&gt;" class="cls-2" d="M1600.69,1115.21A182.33,182.33,0,0,0,1783,1297.54V932.88A182.33,182.33,0,0,0,1600.69,1115.21Z" transform="translate(-197.65 -207.3)"/><path id="_Path_2" data-name="&lt;Path&gt;" class="cls-3" d="M2015.66,1262.82c0-143.3-116.16-259.47-259.46-259.47v518.93C1899.5,1522.28,2015.66,1384.54,2015.66,1262.82Z" transform="translate(-197.65 -207.3)"/><path class="cls-3" d="M788.58,1136.52v-.4c.44,0,.86.07,1.3.07a101.94,101.94,0,0,0,4-203.79l-15-.2v.61a102,102,0,0,0,.05,202.78v.45c-106.14,0-192.19,86-192.19,192.19s86,192.19,192.19,192.19,192.19-86,192.19-192.19C971.15,1225.33,890.23,1141.57,788.58,1136.52Z" transform="translate(-197.65 -207.3)"/></g><path class="cls-4" d="M1927.21,1269.52l-453.78,654.59-323.91-346.23c-72.15-96.36-288.41,112.9-237.59,213.88l427.48,511c114.29,141.61,250.51,95.51,319.68-39.47,0,0,766.09-1414.45,728.35-1439.23C2294.19,763,2195.8,902.49,1927.21,1269.52Z" transform="translate(-197.65 -207.3)"/><g id="tested"><path class="cls-2" d="M804.05,1733.9H687.84v283.29h-90V1733.9H481.67V1653H804.05Z" transform="translate(-197.65 -207.3)"/><path class="cls-2" d="M935.26,1731.75v66.41H1097v77.12H935.26v63.19H1120v78.72H844.76V1653H1120v78.72Z" transform="translate(-197.65 -207.3)"/><path class="cls-2" d="M1468.11,1766h-91c-4.82-27.31-21.42-46.05-60-46.05-32.13,0-53,12.32-53,35.88,0,20.89,15,30,43.91,35.88l50.87,10.71c66.94,13.92,109.78,41.23,109.78,103.89,0,72.83-60,117.82-151,117.82-81.94,0-155.84-39.09-164.41-129.06h91c5.89,32.13,33.2,52.48,76,52.48,32.13,0,51.41-12.32,51.41-32.67,0-12.85-7-26.24-38.56-32.13l-60-12.85c-71.76-15.53-105.5-48.2-105.5-106,0-72.83,58.91-117.82,144.59-117.82C1371.18,1646.07,1459,1668,1468.11,1766Z" transform="translate(-197.65 -207.3)"/><path class="cls-2" d="M1814.06,1733.9H1697.85v283.29h-90V1733.9H1491.67V1653h322.38Z" transform="translate(-197.65 -207.3)"/><path class="cls-2" d="M1945.27,1731.75v66.41H2107v77.12H1945.27v63.19H2130v78.72H1854.77V1653H2130v78.72Z" transform="translate(-197.65 -207.3)"/><path class="cls-2" d="M2524.16,1834c0,108.18-81.93,183.15-196.54,183.15h-146.2V1653h146.2C2442.23,1653,2524.16,1727.47,2524.16,1834Zm-91.57,0c0-56.23-45.52-99.61-105-99.61h-55.69v201.36h55.69C2387.07,1935.79,2432.59,1891.88,2432.59,1834Z" transform="translate(-197.65 -207.3)"/></g></g></svg>