<svg xmlns="http://www.w3.org/2000/svg" viewBox="0 0 1908 1909">
  <defs/>
  <g fill="none" fill-rule="evenodd">
    <path fill="#D64E79" d="M1860.336 654.935c-15.206-15.263-37.38-33.176-62.165-52.33 3.365-28.132 5.773-53.37 5.773-72.595 0-120.18-86.977-156.82-207.687-165.684 4.532-17.914 16.061-37.324 35.1-61.978l-14.92-14.964c-31.738 21.69-54.298 33.447-75.376 35.3-4.56-129.343-30.198-224.24-155.113-224.24-21.578 0-50.023 3.092-81.176 7.139-17.444-22.261-33.578-41.898-47.101-55.494-84.626-84.937-171.86-49.48-263.41 29.798-9.278-15.818-14.78-37.58-18.656-68.248h-21.092c-7.24 38.25-15.035 62.62-28.93 78.851C829.57 3.801 738.347-38.938 649.944 49.747c-13.282 13.339-29.044 32.478-46.102 54.24-27.164-3.236-51.549-5.544-70.203-5.544-124.858 0-159.303 94.755-166.173 223.956-21.334-1.568-44.08-13.353-76.274-35.342l-14.936 14.963c18.97 24.555 30.484 43.908 35.045 61.75-120.682 8.893-207.616 45.547-207.616 165.712 0 19.226 2.437 44.593 5.8 72.739-24.797 19.195-47.001 37.109-62.206 52.387-88.29 88.6-39.691 173.864 48.14 268.505-16.175 13.767-40.388 21.534-78.24 28.759v21.178c30.812 3.904 52.502 9.533 68.28 19.01-78.969 91.878-114.312 179.408-29.672 264.33 13.468 13.538 32.92 29.629 54.981 47.043-4.018 31.281-7.083 59.755-7.083 81.431 0 125.453 94.687 151.133 223.72 155.68-1.753 21.234-13.482 43.922-35.173 75.916l14.908 14.963c24.441-19.011 43.71-30.554 61.48-35.129 8.893 120.95 45.448 208.067 165.075 208.067 19.14 0 44.365-2.451 72.355-5.814 19.21 24.995 37.14 47.356 52.402 62.69 88.317 88.642 173.284 39.803 267.615-48.382 13.624 16.246 21.348 40.474 28.503 78.31h21.106c3.748-29.8 9.079-51.12 17.886-66.838 89.57 81.06 171.046 122.118 255.6 37.238 15.663-15.69 34.103-38.807 53.857-64.572 31.88 4.161 60.996 7.369 82.987 7.369 119.398 0 148.043-86.748 154.356-207.327 17.402 4.818 36.285 16.204 60.113 34.73l14.921-14.963c-21.634-31.894-33.348-54.54-35.173-75.716 129.02-4.547 223.721-30.227 223.721-155.681 0-21.704-3.092-50.292-7.127-81.615 22.09-17.43 41.53-33.52 55.026-47.057 84.582-84.894 49.325-172.382-29.571-264.202 15.761-9.435 37.437-15.05 68.178-18.941v-21.177c-37.951-7.225-62.237-14.992-78.426-28.786 87.932-94.713 136.672-180.021 48.312-268.692"/>
    <path stroke="#FFF" stroke-width=".857" d="M1860.336 654.935c-15.206-15.263-37.38-33.176-62.165-52.33 3.365-28.132 5.773-53.37 5.773-72.595 0-120.18-86.977-156.82-207.687-165.684 4.532-17.914 16.061-37.324 35.1-61.978l-14.92-14.964c-31.738 21.69-54.298 33.447-75.376 35.3-4.56-129.343-30.198-224.24-155.113-224.24-21.578 0-50.023 3.092-81.176 7.139-17.444-22.261-33.578-41.898-47.101-55.494-84.626-84.937-171.86-49.48-263.41 29.798-9.278-15.818-14.78-37.58-18.656-68.248h-21.092c-7.24 38.25-15.035 62.62-28.93 78.851C829.57 3.801 738.347-38.938 649.944 49.747c-13.282 13.339-29.044 32.478-46.102 54.24-27.164-3.236-51.549-5.544-70.203-5.544-124.858 0-159.303 94.755-166.173 223.956-21.334-1.568-44.08-13.353-76.274-35.342l-14.936 14.963c18.97 24.555 30.484 43.908 35.045 61.75-120.682 8.893-207.616 45.547-207.616 165.712 0 19.226 2.437 44.593 5.8 72.739-24.797 19.195-47.001 37.109-62.206 52.387-88.29 88.6-39.691 173.864 48.14 268.505-16.175 13.767-40.388 21.534-78.24 28.759v21.178c30.812 3.904 52.502 9.533 68.28 19.01-78.969 91.878-114.312 179.408-29.672 264.33 13.468 13.538 32.92 29.629 54.981 47.043-4.018 31.281-7.083 59.755-7.083 81.431 0 125.453 94.687 151.133 223.72 155.68-1.753 21.234-13.482 43.922-35.173 75.916l14.908 14.963c24.441-19.011 43.71-30.554 61.48-35.129 8.893 120.95 45.448 208.067 165.075 208.067 19.14 0 44.365-2.451 72.355-5.814 19.21 24.995 37.14 47.356 52.402 62.69 88.317 88.642 173.284 39.803 267.615-48.382 13.624 16.246 21.348 40.474 28.503 78.31h21.106c3.748-29.8 9.079-51.12 17.886-66.838 89.57 81.06 171.046 122.118 255.6 37.238 15.663-15.69 34.103-38.807 53.857-64.572 31.88 4.161 60.996 7.369 82.987 7.369 119.398 0 148.043-86.748 154.356-207.327 17.402 4.818 36.285 16.204 60.113 34.73l14.921-14.963c-21.634-31.894-33.348-54.54-35.173-75.716 129.02-4.547 223.721-30.227 223.721-155.681 0-21.704-3.092-50.292-7.127-81.615 22.09-17.43 41.53-33.52 55.026-47.057 84.582-84.894 49.325-172.382-29.571-264.202 15.761-9.435 37.437-15.05 68.178-18.941v-21.177c-37.951-7.225-62.237-14.992-78.426-28.786 87.932-94.713 136.672-180.021 48.312-268.692"/>
    <path fill="#FFF" d="M1679.216 726.509c-12.154-12.21-29.894-26.555-49.712-41.899 2.679-22.51 4.615-42.725 4.615-58.111 0-96.207-69.544-125.525-166.075-132.635 3.618-14.332 12.837-29.86 28.068-49.592l-11.926-11.981c-25.375 17.352-43.428 26.77-60.269 28.25-3.648-103.543-24.165-179.505-124.044-179.505-17.255 0-40.009 2.479-64.915 5.712-13.95-17.822-26.844-33.535-37.672-44.42-67.666-67.985-137.424-39.605-210.631 23.85-7.422-12.666-11.826-30.076-14.918-54.636h-16.87c-5.784 30.616-12.01 50.133-23.125 63.14-76.783-69.408-149.733-103.615-220.418-32.625-10.615 10.67-23.225 26-36.86 43.424-21.729-2.593-41.22-4.445-56.152-4.445-99.837 0-127.38 75.848-132.865 179.277-17.07-1.253-35.264-10.685-61.01-28.293l-11.926 11.981c15.16 19.646 24.364 35.146 28.012 49.435-96.503 7.124-166.019 36.458-166.019 132.65 0 15.386 1.951 35.688 4.63 58.225-19.82 15.357-37.573 29.704-49.74 41.927-70.6 70.934-31.732 139.188 38.498 214.952-12.937 11.012-32.3 17.238-62.564 23.021v16.94c24.635 3.134 41.99 7.635 54.6 15.229-63.149 73.54-91.403 143.618-23.738 211.588 10.786 10.842 26.345 23.72 43.983 37.655-3.219 25.044-5.669 47.853-5.669 65.19 0 100.44 75.714 120.982 178.9 124.63-1.397 16.995-10.773 35.16-28.127 60.775l11.912 11.98c19.548-15.229 34.965-24.461 49.17-28.136 7.11 96.82 36.347 166.556 132.01 166.556 15.302 0 35.463-1.951 57.861-4.644 15.345 20 29.693 37.91 41.89 50.175 70.628 70.962 138.578 31.87 214.007-38.721 10.9 13.007 17.07 32.396 22.798 62.684h16.869c3.006-23.862 7.266-40.93 14.306-53.51 71.625 64.893 136.767 97.76 204.39 29.818 12.523-12.564 27.27-31.071 43.072-51.686 25.49 3.32 48.756 5.884 66.352 5.884 95.479 0 118.39-69.424 123.433-165.958 13.906 3.86 29.023 12.965 48.073 27.796l11.926-11.981c-17.297-25.53-26.658-43.652-28.126-60.605 103.17-3.633 178.9-24.191 178.9-124.628 0-17.368-2.465-40.247-5.685-65.32 17.654-13.962 33.198-26.841 43.984-37.668 67.636-67.956 39.453-138.005-23.637-211.503 12.595-7.55 29.92-12.039 54.513-15.158v-16.954c-30.348-5.784-49.769-11.996-62.72-23.037 70.328-75.82 109.298-144.116 38.641-215.093"/>
    <path stroke="#FFF" d="M1679.216 726.509c-12.154-12.21-29.894-26.555-49.712-41.899 2.679-22.51 4.615-42.725 4.615-58.111 0-96.207-69.544-125.525-166.075-132.635 3.618-14.332 12.837-29.86 28.068-49.592l-11.926-11.981c-25.375 17.352-43.428 26.77-60.269 28.25-3.648-103.543-24.165-179.505-124.044-179.505-17.255 0-40.009 2.479-64.915 5.712-13.95-17.822-26.844-33.535-37.672-44.42-67.666-67.985-137.424-39.605-210.631 23.85-7.422-12.666-11.826-30.076-14.918-54.636h-16.87c-5.784 30.616-12.01 50.133-23.125 63.14-76.783-69.408-149.733-103.615-220.418-32.625-10.615 10.67-23.225 26-36.86 43.424-21.729-2.593-41.22-4.445-56.152-4.445-99.837 0-127.38 75.848-132.865 179.277-17.07-1.253-35.264-10.685-61.01-28.293l-11.926 11.981c15.16 19.646 24.364 35.146 28.012 49.435-96.503 7.124-166.019 36.458-166.019 132.65 0 15.386 1.951 35.688 4.63 58.225-19.82 15.357-37.573 29.704-49.74 41.927-70.6 70.934-31.732 139.188 38.498 214.952-12.937 11.012-32.3 17.238-62.564 23.021v16.94c24.635 3.134 41.99 7.635 54.6 15.229-63.149 73.54-91.403 143.618-23.738 211.588 10.786 10.842 26.345 23.72 43.983 37.655-3.219 25.044-5.669 47.853-5.669 65.19 0 100.44 75.714 120.982 178.9 124.63-1.397 16.995-10.773 35.16-28.127 60.775l11.912 11.98c19.548-15.229 34.965-24.461 49.17-28.136 7.11 96.82 36.347 166.556 132.01 166.556 15.302 0 35.463-1.951 57.861-4.644 15.345 20 29.693 37.91 41.89 50.175 70.628 70.962 138.578 31.87 214.007-38.721 10.9 13.007 17.07 32.396 22.798 62.684h16.869c3.006-23.862 7.266-40.93 14.306-53.51 71.625 64.893 136.767 97.76 204.39 29.818 12.523-12.564 27.27-31.071 43.072-51.686 25.49 3.32 48.756 5.884 66.352 5.884 95.479 0 118.39-69.424 123.433-165.958 13.906 3.86 29.023 12.965 48.073 27.796l11.926-11.981c-17.297-25.53-26.658-43.652-28.126-60.605 103.17-3.633 178.9-24.191 178.9-124.628 0-17.368-2.465-40.247-5.685-65.32 17.654-13.962 33.198-26.841 43.984-37.668 67.636-67.956 39.453-138.005-23.637-211.503 12.595-7.55 29.92-12.039 54.513-15.158v-16.954c-30.348-5.784-49.769-11.996-62.72-23.037 70.328-75.82 109.298-144.116 38.641-215.093"/>
    <path fill="#D64E79" d="M751.915 981H530v6.838c17.103 0 30.358 26.498 30.358 57.272v179.507c0 30.772-13.255 57.27-30.358 57.27v6.838h140.248v-6.838c-17.104 0-30.36-26.498-30.36-57.27v-93.174h.856c30.786 0 57.296 23.935 57.296 54.708h6.841v-123.09h-6.84c0 30.771-26.511 54.706-57.297 54.706h-.855v-123.09h32.496c39.765 0 72.262 67.955 81.669 90.18h6.84L751.916 981zm225.337 273.107c-5.132 4.7-8.98 6.838-14.966 6.838-5.986 0-12.4-2.992-12.4-14.959v-114.97c0-34.619-35.916-60.263-89.793-60.263-53.875 0-88.08 22.225-88.08 48.723 0 20.089 11.544 36.756 36.343 36.756 21.807 0 41.476-13.249 45.752-26.926-8.552-1.709-16.676-11.54-16.676-24.788 0-14.532 7.696-24.79 22.234-24.79 11.545 0 17.531 7.694 17.531 17.523v61.119c-61.144 17.096-122.716 39.748-122.716 83.77 0 29.49 16.676 50.86 54.73 50.86 28.648 0 53.876-19.66 68.841-34.62 2.994 17.097 12.4 34.62 38.055 34.62 31.641 0 54.304-20.087 64.993-35.9l-3.848-2.993zm-120.15 1.71c-13.683 0-23.09-9.83-23.09-24.362 0-24.362 22.234-50.86 43.185-63.255v79.068c-5.558 4.702-12.4 8.549-20.096 8.549zm264.672-180.79v5.984c28.649 0 33.78 36.328 20.097 69.238l-26.083 62.4-39.766-94.882c-10.261-24.789-13.254-36.756 3.849-36.756v-5.984H966.99v5.984c10.262 0 20.95 11.967 30.784 36.756l71.835 172.668h26.51l67.558-163.265c8.125-19.66 22.235-46.16 43.613-46.16v-5.983h-85.516zm203.53 160.701c-38.91 0-55.158-33.763-57.296-71.375H1395c0-32.054-27.793-93.173-91.93-93.173-63.71 0-102.62 50.434-102.62 110.269 0 61.546 38.91 110.696 95.35 110.696 60.29 0 90.22-44.021 98.771-85.907l-5.558-1.71c-8.123 15.814-30.786 31.2-63.71 31.2zm-24.372-155.145c20.951 0 26.51 43.594 26.937 73.086h-60.29c.429-33.765 11.118-73.086 33.353-73.086zM736.011 846.396l-46.182-92.834c59.866-13.69 82.53-44.065 82.53-76.15 0-40.215-30.789-81.711-116.312-81.711H485v6.844c17.105 0 30.36 26.524 30.36 57.327V839.55c0 30.802-13.255 57.326-30.36 57.326v6.844h140.258v-6.844c-17.104 0-30.36-26.524-30.36-57.326V765.54l20.953-2.138 32.926 80.855c11.546 28.662 16.25 52.62 5.987 52.62v6.844h125.293v-6.844c-8.553 0-30.362-23.102-44.046-50.481zm-141.113-94.118V609.39h9.835c64.143 0 77.826 32.086 77.826 68.021 0 35.937-14.538 61.176-77.826 73.156l-9.835 1.711zm315.581 98.395c-38.913 0-55.162-33.796-57.3-71.444H980.18c0-32.084-27.795-93.262-91.938-93.262-63.715 0-102.628 50.482-102.628 110.375 0 61.604 38.913 110.802 95.359 110.802 60.294 0 90.227-44.064 98.78-85.99l-5.56-1.71c-8.124 15.828-30.788 31.23-63.715 31.23zM886.105 695.38c20.954 0 26.513 43.636 26.94 73.156h-60.293c.426-33.797 11.117-73.156 33.353-73.156zm242.018 155.294c-38.915 0-55.164-33.796-57.301-71.444h127.001c0-32.084-27.795-93.262-91.936-93.262-63.715 0-102.63 50.482-102.63 110.375 0 61.604 38.915 110.802 95.36 110.802 60.294 0 90.227-44.064 98.78-85.99l-5.56-1.71c-8.125 15.828-30.789 31.23-63.714 31.23zm-24.375-155.294c20.953 0 26.512 43.636 26.94 73.156h-60.294c.428-33.797 11.118-73.156 33.354-73.156zM1234.598 588c-20.525 0-36.775 15.828-36.775 35.08 0 20.535 16.25 36.792 36.776 36.792 2.994 0 2.994 3.422 2.994 5.561 0 10.268-15.395 29.946-34.21 43.208l3.848 5.135c40.197-24.386 63.288-58.183 63.288-90.696 0-19.252-15.395-35.08-35.92-35.08zM1439 838.267c0-65.027-112.89-81.283-112.89-122.353 0-14.118 7.696-21.818 19.242-21.818 20.098 0 49.604 24.385 68.418 60.748h5.988v-65.026h-2.566l-11.974 9.839c-10.69-5.133-31.215-14.117-59.438-14.117-43.617 0-74.834 24.813-74.834 68.877 0 65.026 107.76 74.866 107.76 118.502 0 16.257-9.407 26.525-27.368 26.525-29.505 0-59.011-35.936-70.557-68.877h-6.413v64.6c18.815 5.56 43.616 12.833 77.398 12.833 42.333 0 87.234-18.824 87.234-69.733z"/>
  </g>
</svg>
